<mxfile host="app.diagrams.net" modified="2020-10-30T04:03:53.363Z" agent="5.0 (Windows NT 10.0; Win64; x64) AppleWebKit/537.36 (KHTML, like Gecko) Chrome/86.0.4240.111 Safari/537.36" etag="BxZt4deWgyvsyB6bTLwQ" version="13.8.7" type="github">
  <diagram id="aokODsgRx68Id1cw1on9" name="Page-1">
    <mxGraphModel dx="2697" dy="1903" grid="1" gridSize="10" guides="1" tooltips="1" connect="1" arrows="1" fold="1" page="1" pageScale="1" pageWidth="850" pageHeight="1100" math="0" shadow="0">
      <root>
        <mxCell id="0" />
        <mxCell id="1" parent="0" />
        <mxCell id="as9aqDVmYMdzE_2a_-bm-5" value="" style="ellipse;shape=cloud;whiteSpace=wrap;html=1;" parent="1" vertex="1">
          <mxGeometry x="1980" y="-40" width="400" height="385" as="geometry" />
        </mxCell>
        <mxCell id="6UK9n3AYxKvv8hEqM6GO-25" value="&lt;span style=&quot;color: rgb(0 , 0 , 0) ; font-family: &amp;#34;helvetica&amp;#34; ; font-size: 11px ; font-style: normal ; font-weight: 400 ; letter-spacing: normal ; text-align: center ; text-indent: 0px ; text-transform: none ; word-spacing: 0px ; background-color: rgb(255 , 255 , 255) ; display: inline ; float: none&quot;&gt;setToken(id_token, mqttName, mqttPwd)&lt;/span&gt;&lt;span style=&quot;color: rgb(0 , 0 , 0) ; font-family: &amp;#34;helvetica&amp;#34; ; font-size: 11px ; font-style: normal ; font-weight: 400 ; letter-spacing: normal ; text-align: center ; text-indent: 0px ; text-transform: none ; word-spacing: 0px ; background-color: rgb(255 , 255 , 255) ; display: inline ; float: none&quot;&gt;)&lt;/span&gt;&lt;br style=&quot;color: rgb(0 , 0 , 0) ; font-family: &amp;#34;helvetica&amp;#34; ; font-size: 11px ; font-style: normal ; font-weight: 400 ; letter-spacing: normal ; text-align: center ; text-indent: 0px ; text-transform: none ; word-spacing: 0px&quot;&gt;&lt;span style=&quot;color: rgb(0 , 0 , 0) ; font-family: &amp;#34;helvetica&amp;#34; ; font-size: 11px ; font-style: normal ; font-weight: 400 ; letter-spacing: normal ; text-align: center ; text-indent: 0px ; text-transform: none ; word-spacing: 0px ; background-color: rgb(255 , 255 , 255) ; display: inline ; float: none&quot;&gt;authenticated:&amp;nbsp;&lt;/span&gt;&lt;br style=&quot;color: rgb(0 , 0 , 0) ; font-family: &amp;#34;helvetica&amp;#34; ; font-size: 11px ; font-style: normal ; font-weight: 400 ; letter-spacing: normal ; text-align: center ; text-indent: 0px ; text-transform: none ; word-spacing: 0px&quot;&gt;&lt;span style=&quot;color: rgb(0 , 0 , 0) ; font-family: &amp;#34;helvetica&amp;#34; ; font-size: 11px ; font-style: normal ; font-weight: 400 ; letter-spacing: normal ; text-align: center ; text-indent: 0px ; text-transform: none ; word-spacing: 0px ; background-color: rgb(255 , 255 , 255) ; display: inline ; float: none&quot;&gt;authStatus.AUTHENTICATED, username&lt;/span&gt;" style="edgeStyle=orthogonalEdgeStyle;rounded=0;orthogonalLoop=1;jettySize=auto;html=1;exitX=1;exitY=0.5;exitDx=0;exitDy=0;" parent="1" source="6UK9n3AYxKvv8hEqM6GO-8" edge="1">
          <mxGeometry x="0.04" y="-30" relative="1" as="geometry">
            <mxPoint x="540" y="180" as="targetPoint" />
            <Array as="points">
              <mxPoint x="540" y="395" />
              <mxPoint x="540" y="180" />
            </Array>
            <mxPoint y="1" as="offset" />
          </mxGeometry>
        </mxCell>
        <mxCell id="LV5CCHK0L-nCkO7Zp9Pf-14" value="Fail&lt;br&gt;authenticated=&lt;br&gt;authStatus.UNAUTHENTICATED" style="edgeLabel;html=1;align=center;verticalAlign=middle;resizable=0;points=[];" parent="1" vertex="1" connectable="0">
          <mxGeometry x="-0.0016189774512440636" y="89.99886227473723" as="geometry">
            <mxPoint x="-3" y="24" as="offset" />
          </mxGeometry>
        </mxCell>
        <mxCell id="LV5CCHK0L-nCkO7Zp9Pf-59" style="edgeStyle=orthogonalEdgeStyle;rounded=0;orthogonalLoop=1;jettySize=auto;html=1;exitX=0.5;exitY=1;exitDx=0;exitDy=0;" parent="1" source="LV5CCHK0L-nCkO7Zp9Pf-5" target="LV5CCHK0L-nCkO7Zp9Pf-51" edge="1">
          <mxGeometry relative="1" as="geometry" />
        </mxCell>
        <mxCell id="LV5CCHK0L-nCkO7Zp9Pf-5" value="BeforeLogin App&lt;br&gt;BeforeLoginConfig" style="rounded=1;whiteSpace=wrap;html=1;" parent="1" vertex="1">
          <mxGeometry x="-10" y="160" width="120" height="60" as="geometry" />
        </mxCell>
        <mxCell id="LV5CCHK0L-nCkO7Zp9Pf-6" value="&lt;meta charset=&quot;utf-8&quot;&gt;&lt;span style=&quot;color: rgb(0, 0, 0); font-family: helvetica; font-size: 11px; font-style: normal; font-weight: 400; letter-spacing: normal; text-align: center; text-indent: 0px; text-transform: none; word-spacing: 0px; background-color: rgb(255, 255, 255); display: inline; float: none;&quot;&gt;CheckAuth&lt;/span&gt;" style="edgeStyle=orthogonalEdgeStyle;rounded=0;orthogonalLoop=1;jettySize=auto;html=1;" parent="1" source="LV5CCHK0L-nCkO7Zp9Pf-7" target="LV5CCHK0L-nCkO7Zp9Pf-13" edge="1">
          <mxGeometry relative="1" as="geometry" />
        </mxCell>
        <mxCell id="LV5CCHK0L-nCkO7Zp9Pf-7" value="Start" style="rounded=1;whiteSpace=wrap;html=1;" parent="1" vertex="1">
          <mxGeometry x="-230" y="20" width="120" height="60" as="geometry" />
        </mxCell>
        <mxCell id="LV5CCHK0L-nCkO7Zp9Pf-49" style="edgeStyle=orthogonalEdgeStyle;rounded=0;orthogonalLoop=1;jettySize=auto;html=1;exitX=1;exitY=0.5;exitDx=0;exitDy=0;entryX=0;entryY=0.5;entryDx=0;entryDy=0;" parent="1" source="LV5CCHK0L-nCkO7Zp9Pf-10" target="LV5CCHK0L-nCkO7Zp9Pf-48" edge="1">
          <mxGeometry relative="1" as="geometry" />
        </mxCell>
        <mxCell id="LV5CCHK0L-nCkO7Zp9Pf-50" value="Fail&lt;br&gt;authenticated=&lt;br&gt;authStatus.AUTHENTICATED" style="edgeLabel;html=1;align=center;verticalAlign=middle;resizable=0;points=[];" parent="LV5CCHK0L-nCkO7Zp9Pf-49" vertex="1" connectable="0">
          <mxGeometry x="-0.232" y="3" relative="1" as="geometry">
            <mxPoint as="offset" />
          </mxGeometry>
        </mxCell>
        <mxCell id="LV5CCHK0L-nCkO7Zp9Pf-10" value="GetRequest&lt;br&gt;api/usr/auth" style="rhombus;whiteSpace=wrap;html=1;" parent="1" vertex="1">
          <mxGeometry x="180" y="50" width="80" height="80" as="geometry" />
        </mxCell>
        <mxCell id="LV5CCHK0L-nCkO7Zp9Pf-12" style="edgeStyle=orthogonalEdgeStyle;rounded=0;orthogonalLoop=1;jettySize=auto;html=1;exitX=0.5;exitY=1;exitDx=0;exitDy=0;entryX=0.5;entryY=0;entryDx=0;entryDy=0;" parent="1" source="LV5CCHK0L-nCkO7Zp9Pf-13" target="LV5CCHK0L-nCkO7Zp9Pf-5" edge="1">
          <mxGeometry relative="1" as="geometry">
            <mxPoint x="110" y="190" as="targetPoint" />
          </mxGeometry>
        </mxCell>
        <mxCell id="LV5CCHK0L-nCkO7Zp9Pf-46" style="edgeStyle=orthogonalEdgeStyle;rounded=0;orthogonalLoop=1;jettySize=auto;html=1;exitX=1;exitY=0.5;exitDx=0;exitDy=0;" parent="1" source="LV5CCHK0L-nCkO7Zp9Pf-13" target="LV5CCHK0L-nCkO7Zp9Pf-10" edge="1">
          <mxGeometry relative="1" as="geometry" />
        </mxCell>
        <mxCell id="LV5CCHK0L-nCkO7Zp9Pf-47" value="Token" style="edgeLabel;html=1;align=center;verticalAlign=middle;resizable=0;points=[];" parent="LV5CCHK0L-nCkO7Zp9Pf-46" vertex="1" connectable="0">
          <mxGeometry x="-0.4615" y="-3" relative="1" as="geometry">
            <mxPoint as="offset" />
          </mxGeometry>
        </mxCell>
        <mxCell id="LV5CCHK0L-nCkO7Zp9Pf-13" value="Get Token&amp;nbsp;" style="rhombus;whiteSpace=wrap;html=1;" parent="1" vertex="1">
          <mxGeometry x="10" y="10" width="80" height="80" as="geometry" />
        </mxCell>
        <mxCell id="LV5CCHK0L-nCkO7Zp9Pf-8" style="edgeStyle=orthogonalEdgeStyle;rounded=0;orthogonalLoop=1;jettySize=auto;html=1;exitX=0.5;exitY=1;exitDx=0;exitDy=0;entryX=1;entryY=0.5;entryDx=0;entryDy=0;" parent="1" source="LV5CCHK0L-nCkO7Zp9Pf-10" target="LV5CCHK0L-nCkO7Zp9Pf-5" edge="1">
          <mxGeometry relative="1" as="geometry" />
        </mxCell>
        <mxCell id="LV5CCHK0L-nCkO7Zp9Pf-9" value="Fail&lt;br&gt;authenticated=&lt;br&gt;authStatus.UNAUTHENTICATED" style="edgeLabel;html=1;align=center;verticalAlign=middle;resizable=0;points=[];" parent="LV5CCHK0L-nCkO7Zp9Pf-8" vertex="1" connectable="0">
          <mxGeometry x="-0.028" y="-37" relative="1" as="geometry">
            <mxPoint x="31.999999999999986" y="-3" as="offset" />
          </mxGeometry>
        </mxCell>
        <mxCell id="6UK9n3AYxKvv8hEqM6GO-106" style="edgeStyle=orthogonalEdgeStyle;rounded=0;orthogonalLoop=1;jettySize=auto;html=1;exitX=1;exitY=0.5;exitDx=0;exitDy=0;" parent="1" source="LV5CCHK0L-nCkO7Zp9Pf-48" target="6UK9n3AYxKvv8hEqM6GO-73" edge="1">
          <mxGeometry relative="1" as="geometry" />
        </mxCell>
        <mxCell id="LV5CCHK0L-nCkO7Zp9Pf-48" value="AppContainer" style="rounded=1;whiteSpace=wrap;html=1;" parent="1" vertex="1">
          <mxGeometry x="720" y="60" width="120" height="60" as="geometry" />
        </mxCell>
        <mxCell id="LV5CCHK0L-nCkO7Zp9Pf-61" style="edgeStyle=orthogonalEdgeStyle;rounded=0;orthogonalLoop=1;jettySize=auto;html=1;exitX=0.25;exitY=0;exitDx=0;exitDy=0;" parent="1" source="LV5CCHK0L-nCkO7Zp9Pf-51" target="LV5CCHK0L-nCkO7Zp9Pf-60" edge="1">
          <mxGeometry relative="1" as="geometry" />
        </mxCell>
        <mxCell id="LV5CCHK0L-nCkO7Zp9Pf-65" style="edgeStyle=orthogonalEdgeStyle;rounded=0;orthogonalLoop=1;jettySize=auto;html=1;exitX=0.25;exitY=1;exitDx=0;exitDy=0;entryX=0.5;entryY=0;entryDx=0;entryDy=0;" parent="1" source="LV5CCHK0L-nCkO7Zp9Pf-51" target="LV5CCHK0L-nCkO7Zp9Pf-63" edge="1">
          <mxGeometry relative="1" as="geometry">
            <Array as="points">
              <mxPoint x="20" y="470" />
              <mxPoint x="20" y="470" />
            </Array>
          </mxGeometry>
        </mxCell>
        <mxCell id="6UK9n3AYxKvv8hEqM6GO-3" style="edgeStyle=orthogonalEdgeStyle;rounded=0;orthogonalLoop=1;jettySize=auto;html=1;exitX=1;exitY=0.5;exitDx=0;exitDy=0;entryX=0;entryY=0.5;entryDx=0;entryDy=0;" parent="1" source="LV5CCHK0L-nCkO7Zp9Pf-51" target="LV5CCHK0L-nCkO7Zp9Pf-68" edge="1">
          <mxGeometry relative="1" as="geometry" />
        </mxCell>
        <mxCell id="6UK9n3AYxKvv8hEqM6GO-4" style="edgeStyle=orthogonalEdgeStyle;rounded=0;orthogonalLoop=1;jettySize=auto;html=1;exitX=0.75;exitY=0;exitDx=0;exitDy=0;entryX=0;entryY=0.5;entryDx=0;entryDy=0;" parent="1" source="LV5CCHK0L-nCkO7Zp9Pf-51" target="LV5CCHK0L-nCkO7Zp9Pf-66" edge="1">
          <mxGeometry relative="1" as="geometry" />
        </mxCell>
        <mxCell id="6UK9n3AYxKvv8hEqM6GO-28" style="edgeStyle=orthogonalEdgeStyle;rounded=0;orthogonalLoop=1;jettySize=auto;html=1;exitX=0.75;exitY=1;exitDx=0;exitDy=0;entryX=0;entryY=0.5;entryDx=0;entryDy=0;" parent="1" source="LV5CCHK0L-nCkO7Zp9Pf-51" target="LV5CCHK0L-nCkO7Zp9Pf-69" edge="1">
          <mxGeometry relative="1" as="geometry" />
        </mxCell>
        <mxCell id="LV5CCHK0L-nCkO7Zp9Pf-51" value="Login" style="rounded=1;whiteSpace=wrap;html=1;" parent="1" vertex="1">
          <mxGeometry x="-10" y="365" width="120" height="60" as="geometry" />
        </mxCell>
        <mxCell id="6UK9n3AYxKvv8hEqM6GO-41" value="onChangeEmail&lt;br&gt;onChangePassword&lt;br&gt;onChangeConfirmPassword" style="edgeStyle=orthogonalEdgeStyle;rounded=0;orthogonalLoop=1;jettySize=auto;html=1;exitX=0;exitY=0.5;exitDx=0;exitDy=0;entryX=0.5;entryY=0;entryDx=0;entryDy=0;" parent="1" source="LV5CCHK0L-nCkO7Zp9Pf-52" target="6UK9n3AYxKvv8hEqM6GO-37" edge="1">
          <mxGeometry x="0.2313" y="-20" relative="1" as="geometry">
            <mxPoint as="offset" />
          </mxGeometry>
        </mxCell>
        <mxCell id="LV5CCHK0L-nCkO7Zp9Pf-52" value="Register" style="rounded=1;whiteSpace=wrap;html=1;" parent="1" vertex="1">
          <mxGeometry x="-180" y="220" width="120" height="60" as="geometry" />
        </mxCell>
        <mxCell id="6UK9n3AYxKvv8hEqM6GO-45" style="edgeStyle=orthogonalEdgeStyle;rounded=0;orthogonalLoop=1;jettySize=auto;html=1;exitX=0.75;exitY=0;exitDx=0;exitDy=0;entryX=0.109;entryY=0.996;entryDx=0;entryDy=0;entryPerimeter=0;" parent="1" source="LV5CCHK0L-nCkO7Zp9Pf-53" target="LV5CCHK0L-nCkO7Zp9Pf-51" edge="1">
          <mxGeometry relative="1" as="geometry">
            <Array as="points">
              <mxPoint x="-100" y="470" />
              <mxPoint x="3" y="470" />
            </Array>
          </mxGeometry>
        </mxCell>
        <mxCell id="6UK9n3AYxKvv8hEqM6GO-46" value="Go back to Login" style="edgeLabel;html=1;align=center;verticalAlign=middle;resizable=0;points=[];" parent="6UK9n3AYxKvv8hEqM6GO-45" vertex="1" connectable="0">
          <mxGeometry x="-0.1157" y="3" relative="1" as="geometry">
            <mxPoint as="offset" />
          </mxGeometry>
        </mxCell>
        <mxCell id="LV5CCHK0L-nCkO7Zp9Pf-53" value="RegisterSuccess" style="rounded=1;whiteSpace=wrap;html=1;" parent="1" vertex="1">
          <mxGeometry x="-190" y="540" width="120" height="60" as="geometry" />
        </mxCell>
        <mxCell id="6UK9n3AYxKvv8hEqM6GO-53" value="Email" style="edgeStyle=orthogonalEdgeStyle;rounded=0;orthogonalLoop=1;jettySize=auto;html=1;" parent="1" source="LV5CCHK0L-nCkO7Zp9Pf-54" target="6UK9n3AYxKvv8hEqM6GO-52" edge="1">
          <mxGeometry relative="1" as="geometry" />
        </mxCell>
        <mxCell id="LV5CCHK0L-nCkO7Zp9Pf-54" value="SendEmail" style="rounded=1;whiteSpace=wrap;html=1;" parent="1" vertex="1">
          <mxGeometry x="-100" y="650" width="120" height="60" as="geometry" />
        </mxCell>
        <mxCell id="6UK9n3AYxKvv8hEqM6GO-58" value="resetCode" style="edgeStyle=orthogonalEdgeStyle;rounded=0;orthogonalLoop=1;jettySize=auto;html=1;exitX=1;exitY=0.5;exitDx=0;exitDy=0;entryX=0;entryY=0.5;entryDx=0;entryDy=0;" parent="1" source="LV5CCHK0L-nCkO7Zp9Pf-55" target="6UK9n3AYxKvv8hEqM6GO-57" edge="1">
          <mxGeometry relative="1" as="geometry" />
        </mxCell>
        <mxCell id="LV5CCHK0L-nCkO7Zp9Pf-55" value="CodeConfirm" style="rounded=1;whiteSpace=wrap;html=1;" parent="1" vertex="1">
          <mxGeometry x="90" y="880" width="120" height="60" as="geometry" />
        </mxCell>
        <mxCell id="6UK9n3AYxKvv8hEqM6GO-65" style="edgeStyle=orthogonalEdgeStyle;rounded=0;orthogonalLoop=1;jettySize=auto;html=1;exitX=0.5;exitY=0;exitDx=0;exitDy=0;entryX=0.5;entryY=1;entryDx=0;entryDy=0;" parent="1" source="LV5CCHK0L-nCkO7Zp9Pf-56" target="6UK9n3AYxKvv8hEqM6GO-63" edge="1">
          <mxGeometry relative="1" as="geometry" />
        </mxCell>
        <mxCell id="LV5CCHK0L-nCkO7Zp9Pf-56" value="NewPassword" style="rounded=1;whiteSpace=wrap;html=1;" parent="1" vertex="1">
          <mxGeometry x="430" y="760" width="120" height="60" as="geometry" />
        </mxCell>
        <mxCell id="6UK9n3AYxKvv8hEqM6GO-71" style="edgeStyle=orthogonalEdgeStyle;rounded=0;orthogonalLoop=1;jettySize=auto;html=1;exitX=0.25;exitY=0;exitDx=0;exitDy=0;entryX=0.619;entryY=0.996;entryDx=0;entryDy=0;entryPerimeter=0;" parent="1" source="LV5CCHK0L-nCkO7Zp9Pf-57" target="LV5CCHK0L-nCkO7Zp9Pf-51" edge="1">
          <mxGeometry relative="1" as="geometry">
            <Array as="points">
              <mxPoint x="64" y="640" />
            </Array>
          </mxGeometry>
        </mxCell>
        <mxCell id="LV5CCHK0L-nCkO7Zp9Pf-57" value="ChangePassword Success" style="rounded=1;whiteSpace=wrap;html=1;" parent="1" vertex="1">
          <mxGeometry x="50" y="640" width="120" height="60" as="geometry" />
        </mxCell>
        <mxCell id="6UK9n3AYxKvv8hEqM6GO-47" style="edgeStyle=orthogonalEdgeStyle;rounded=0;orthogonalLoop=1;jettySize=auto;html=1;exitX=0.5;exitY=0;exitDx=0;exitDy=0;" parent="1" source="LV5CCHK0L-nCkO7Zp9Pf-60" edge="1">
          <mxGeometry relative="1" as="geometry">
            <mxPoint x="-71" y="280" as="targetPoint" />
          </mxGeometry>
        </mxCell>
        <mxCell id="LV5CCHK0L-nCkO7Zp9Pf-60" value="Register" style="ellipse;whiteSpace=wrap;html=1;aspect=fixed;" parent="1" vertex="1">
          <mxGeometry x="-110" y="300" width="80" height="80" as="geometry" />
        </mxCell>
        <mxCell id="LV5CCHK0L-nCkO7Zp9Pf-64" style="edgeStyle=orthogonalEdgeStyle;rounded=0;orthogonalLoop=1;jettySize=auto;html=1;" parent="1" source="LV5CCHK0L-nCkO7Zp9Pf-63" target="LV5CCHK0L-nCkO7Zp9Pf-54" edge="1">
          <mxGeometry relative="1" as="geometry" />
        </mxCell>
        <mxCell id="LV5CCHK0L-nCkO7Zp9Pf-63" value="Forgot your password?" style="ellipse;whiteSpace=wrap;html=1;aspect=fixed;" parent="1" vertex="1">
          <mxGeometry x="-20" y="510" width="80" height="80" as="geometry" />
        </mxCell>
        <mxCell id="6UK9n3AYxKvv8hEqM6GO-6" style="edgeStyle=orthogonalEdgeStyle;rounded=0;orthogonalLoop=1;jettySize=auto;html=1;exitX=1;exitY=0.5;exitDx=0;exitDy=0;" parent="1" source="LV5CCHK0L-nCkO7Zp9Pf-66" target="6UK9n3AYxKvv8hEqM6GO-5" edge="1">
          <mxGeometry relative="1" as="geometry" />
        </mxCell>
        <mxCell id="6UK9n3AYxKvv8hEqM6GO-27" value="Login(email,password)" style="edgeLabel;html=1;align=center;verticalAlign=middle;resizable=0;points=[];" parent="6UK9n3AYxKvv8hEqM6GO-6" vertex="1" connectable="0">
          <mxGeometry x="-0.1857" y="-1" relative="1" as="geometry">
            <mxPoint y="-11" as="offset" />
          </mxGeometry>
        </mxCell>
        <mxCell id="LV5CCHK0L-nCkO7Zp9Pf-66" value="Login" style="ellipse;whiteSpace=wrap;html=1;aspect=fixed;" parent="1" vertex="1">
          <mxGeometry x="150" y="240" width="80" height="80" as="geometry" />
        </mxCell>
        <mxCell id="6UK9n3AYxKvv8hEqM6GO-9" value="LoginByFacebook&lt;br&gt;Login Manager.loginwithPermission(&lt;br&gt;[public_profile, email])&lt;br&gt;AccessToken.getCurrentAccessToken&lt;br&gt;FacebookLogin(data)" style="edgeStyle=orthogonalEdgeStyle;rounded=0;orthogonalLoop=1;jettySize=auto;html=1;exitX=1;exitY=0.5;exitDx=0;exitDy=0;entryX=0;entryY=0.5;entryDx=0;entryDy=0;" parent="1" source="LV5CCHK0L-nCkO7Zp9Pf-68" target="6UK9n3AYxKvv8hEqM6GO-8" edge="1">
          <mxGeometry x="-0.0244" y="-15" relative="1" as="geometry">
            <mxPoint as="offset" />
          </mxGeometry>
        </mxCell>
        <mxCell id="LV5CCHK0L-nCkO7Zp9Pf-68" value="Login with Facebook" style="ellipse;whiteSpace=wrap;html=1;aspect=fixed;" parent="1" vertex="1">
          <mxGeometry x="140" y="355" width="80" height="80" as="geometry" />
        </mxCell>
        <mxCell id="6UK9n3AYxKvv8hEqM6GO-12" style="edgeStyle=orthogonalEdgeStyle;rounded=0;orthogonalLoop=1;jettySize=auto;html=1;exitX=1;exitY=0.5;exitDx=0;exitDy=0;entryX=0;entryY=0.5;entryDx=0;entryDy=0;" parent="1" source="LV5CCHK0L-nCkO7Zp9Pf-69" target="6UK9n3AYxKvv8hEqM6GO-11" edge="1">
          <mxGeometry relative="1" as="geometry" />
        </mxCell>
        <mxCell id="6UK9n3AYxKvv8hEqM6GO-35" value="LoginByGoogle&lt;br&gt;GoogleSignIn.hasPlayServices&lt;br&gt;oogleSignIn.signIn()&lt;br&gt;googleLogin(user.id, user.email)" style="edgeLabel;html=1;align=center;verticalAlign=middle;resizable=0;points=[];" parent="6UK9n3AYxKvv8hEqM6GO-12" vertex="1" connectable="0">
          <mxGeometry x="-0.3712" y="2" relative="1" as="geometry">
            <mxPoint x="23.53" y="2" as="offset" />
          </mxGeometry>
        </mxCell>
        <mxCell id="LV5CCHK0L-nCkO7Zp9Pf-69" value="Login with Google" style="ellipse;whiteSpace=wrap;html=1;aspect=fixed;" parent="1" vertex="1">
          <mxGeometry x="110" y="510" width="80" height="80" as="geometry" />
        </mxCell>
        <mxCell id="6UK9n3AYxKvv8hEqM6GO-7" style="edgeStyle=orthogonalEdgeStyle;rounded=0;orthogonalLoop=1;jettySize=auto;html=1;exitX=0.5;exitY=0;exitDx=0;exitDy=0;entryX=0;entryY=0.75;entryDx=0;entryDy=0;" parent="1" source="6UK9n3AYxKvv8hEqM6GO-5" target="LV5CCHK0L-nCkO7Zp9Pf-48" edge="1">
          <mxGeometry relative="1" as="geometry">
            <mxPoint x="540" y="122" as="targetPoint" />
            <Array as="points">
              <mxPoint x="410" y="180" />
              <mxPoint x="540" y="180" />
              <mxPoint x="540" y="105" />
            </Array>
          </mxGeometry>
        </mxCell>
        <mxCell id="6UK9n3AYxKvv8hEqM6GO-15" value="setToken(id_token, mqttName, mqttPwd)&lt;br&gt;AsyncStorage.setItem(&#39;Mesh_login_email&#39;, email)&lt;br&gt;authenticated:&amp;nbsp;&lt;br&gt;authStatus.AUTHENTICATED, username" style="edgeLabel;html=1;align=center;verticalAlign=middle;resizable=0;points=[];" parent="6UK9n3AYxKvv8hEqM6GO-7" vertex="1" connectable="0">
          <mxGeometry x="-0.4815" y="-3" relative="1" as="geometry">
            <mxPoint x="-20" y="17" as="offset" />
          </mxGeometry>
        </mxCell>
        <mxCell id="6UK9n3AYxKvv8hEqM6GO-21" style="edgeStyle=orthogonalEdgeStyle;rounded=0;orthogonalLoop=1;jettySize=auto;html=1;exitX=0.5;exitY=1;exitDx=0;exitDy=0;" parent="1" source="6UK9n3AYxKvv8hEqM6GO-5" edge="1">
          <mxGeometry relative="1" as="geometry">
            <mxPoint x="410" y="340" as="targetPoint" />
          </mxGeometry>
        </mxCell>
        <mxCell id="6UK9n3AYxKvv8hEqM6GO-5" value="PostRequestNonAuth&lt;br&gt;/api/usrs/authen ticate&lt;br&gt;{email, password}" style="rhombus;whiteSpace=wrap;html=1;" parent="1" vertex="1">
          <mxGeometry x="370" y="240" width="80" height="80" as="geometry" />
        </mxCell>
        <mxCell id="6UK9n3AYxKvv8hEqM6GO-22" style="edgeStyle=orthogonalEdgeStyle;rounded=0;orthogonalLoop=1;jettySize=auto;html=1;exitX=0.5;exitY=0;exitDx=0;exitDy=0;" parent="1" source="6UK9n3AYxKvv8hEqM6GO-8" edge="1">
          <mxGeometry relative="1" as="geometry">
            <mxPoint x="100" y="360" as="targetPoint" />
            <Array as="points">
              <mxPoint x="465" y="340" />
              <mxPoint x="100" y="340" />
            </Array>
          </mxGeometry>
        </mxCell>
        <mxCell id="6UK9n3AYxKvv8hEqM6GO-32" value="Fail&lt;br&gt;authenticated=&lt;br&gt;authStatus.UNAUTHENTICATED" style="edgeLabel;html=1;align=center;verticalAlign=middle;resizable=0;points=[];" parent="6UK9n3AYxKvv8hEqM6GO-22" vertex="1" connectable="0">
          <mxGeometry x="-0.165" y="-2" relative="1" as="geometry">
            <mxPoint as="offset" />
          </mxGeometry>
        </mxCell>
        <mxCell id="6UK9n3AYxKvv8hEqM6GO-8" value="&lt;span&gt;PostRequestNonAuth&lt;/span&gt;&lt;br&gt;&lt;span&gt;/api/usrs/facebookAuth&lt;/span&gt;&lt;br&gt;&lt;span&gt;{accessToken, userID}&lt;/span&gt;" style="rhombus;whiteSpace=wrap;html=1;" parent="1" vertex="1">
          <mxGeometry x="425" y="355" width="80" height="80" as="geometry" />
        </mxCell>
        <mxCell id="6UK9n3AYxKvv8hEqM6GO-26" style="edgeStyle=orthogonalEdgeStyle;rounded=0;orthogonalLoop=1;jettySize=auto;html=1;exitX=1;exitY=0.5;exitDx=0;exitDy=0;" parent="1" source="6UK9n3AYxKvv8hEqM6GO-11" edge="1">
          <mxGeometry relative="1" as="geometry">
            <mxPoint x="540" y="390" as="targetPoint" />
          </mxGeometry>
        </mxCell>
        <mxCell id="6UK9n3AYxKvv8hEqM6GO-33" value="&lt;span style=&quot;font-family: &amp;#34;helvetica&amp;#34;&quot;&gt;setToken(id_token, mqttName, mqttPwd)&lt;/span&gt;&lt;span style=&quot;font-family: &amp;#34;helvetica&amp;#34;&quot;&gt;)&lt;/span&gt;&lt;br style=&quot;font-family: &amp;#34;helvetica&amp;#34;&quot;&gt;&lt;span style=&quot;font-family: &amp;#34;helvetica&amp;#34;&quot;&gt;authenticated:&amp;nbsp;&lt;/span&gt;&lt;br style=&quot;font-family: &amp;#34;helvetica&amp;#34;&quot;&gt;&lt;span style=&quot;font-family: &amp;#34;helvetica&amp;#34;&quot;&gt;authStatus.AUTHENTICATED, username&lt;/span&gt;" style="edgeLabel;html=1;align=center;verticalAlign=middle;resizable=0;points=[];" parent="6UK9n3AYxKvv8hEqM6GO-26" vertex="1" connectable="0">
          <mxGeometry x="0.208" relative="1" as="geometry">
            <mxPoint as="offset" />
          </mxGeometry>
        </mxCell>
        <mxCell id="6UK9n3AYxKvv8hEqM6GO-30" style="edgeStyle=orthogonalEdgeStyle;rounded=0;orthogonalLoop=1;jettySize=auto;html=1;entryX=0.917;entryY=1.033;entryDx=0;entryDy=0;entryPerimeter=0;" parent="1" source="6UK9n3AYxKvv8hEqM6GO-11" target="LV5CCHK0L-nCkO7Zp9Pf-51" edge="1">
          <mxGeometry relative="1" as="geometry">
            <mxPoint x="370" y="450" as="targetPoint" />
            <Array as="points">
              <mxPoint x="410" y="470" />
              <mxPoint x="100" y="470" />
            </Array>
          </mxGeometry>
        </mxCell>
        <mxCell id="6UK9n3AYxKvv8hEqM6GO-31" value="Fail&lt;br&gt;authenticated=&lt;br&gt;authStatus.UNAUTHENTICATED" style="edgeLabel;html=1;align=center;verticalAlign=middle;resizable=0;points=[];" parent="6UK9n3AYxKvv8hEqM6GO-30" vertex="1" connectable="0">
          <mxGeometry x="-0.2519" y="-1" relative="1" as="geometry">
            <mxPoint as="offset" />
          </mxGeometry>
        </mxCell>
        <mxCell id="6UK9n3AYxKvv8hEqM6GO-11" value="&lt;span&gt;PostRequestNonAuth&lt;/span&gt;&lt;br&gt;&lt;span&gt;/api/usrs/googleAuth&lt;/span&gt;&lt;br&gt;&lt;span&gt;(data}&lt;/span&gt;" style="rhombus;whiteSpace=wrap;html=1;" parent="1" vertex="1">
          <mxGeometry x="370" y="510" width="80" height="80" as="geometry" />
        </mxCell>
        <mxCell id="6UK9n3AYxKvv8hEqM6GO-43" value="OnSubmit&lt;br&gt;state.password,&lt;br&gt;state.confirmpassword" style="edgeStyle=orthogonalEdgeStyle;rounded=0;orthogonalLoop=1;jettySize=auto;html=1;exitX=0.5;exitY=1;exitDx=0;exitDy=0;entryX=0.5;entryY=0;entryDx=0;entryDy=0;" parent="1" source="6UK9n3AYxKvv8hEqM6GO-37" target="6UK9n3AYxKvv8hEqM6GO-42" edge="1">
          <mxGeometry x="-0.1429" y="-10" relative="1" as="geometry">
            <mxPoint y="1" as="offset" />
          </mxGeometry>
        </mxCell>
        <mxCell id="6UK9n3AYxKvv8hEqM6GO-37" value="Register" style="ellipse;whiteSpace=wrap;html=1;aspect=fixed;" parent="1" vertex="1">
          <mxGeometry x="-300" y="300" width="80" height="80" as="geometry" />
        </mxCell>
        <mxCell id="6UK9n3AYxKvv8hEqM6GO-44" value="Register&lt;br&gt;Successfully" style="edgeStyle=orthogonalEdgeStyle;rounded=0;orthogonalLoop=1;jettySize=auto;html=1;exitX=0.5;exitY=1;exitDx=0;exitDy=0;entryX=0;entryY=0.5;entryDx=0;entryDy=0;" parent="1" source="6UK9n3AYxKvv8hEqM6GO-42" target="LV5CCHK0L-nCkO7Zp9Pf-53" edge="1">
          <mxGeometry relative="1" as="geometry" />
        </mxCell>
        <mxCell id="6UK9n3AYxKvv8hEqM6GO-42" value="postRequestNonAuth&lt;br&gt;/api/users/createUser&lt;br&gt;{email.password}" style="rhombus;whiteSpace=wrap;html=1;" parent="1" vertex="1">
          <mxGeometry x="-300" y="450" width="80" height="80" as="geometry" />
        </mxCell>
        <mxCell id="6UK9n3AYxKvv8hEqM6GO-51" style="edgeStyle=orthogonalEdgeStyle;rounded=0;orthogonalLoop=1;jettySize=auto;html=1;entryX=0;entryY=0.5;entryDx=0;entryDy=0;" parent="1" source="6UK9n3AYxKvv8hEqM6GO-49" target="LV5CCHK0L-nCkO7Zp9Pf-55" edge="1">
          <mxGeometry relative="1" as="geometry" />
        </mxCell>
        <mxCell id="6UK9n3AYxKvv8hEqM6GO-55" style="edgeStyle=orthogonalEdgeStyle;rounded=0;orthogonalLoop=1;jettySize=auto;html=1;exitX=0.5;exitY=1;exitDx=0;exitDy=0;" parent="1" source="6UK9n3AYxKvv8hEqM6GO-49" edge="1">
          <mxGeometry relative="1" as="geometry">
            <mxPoint x="-90" y="940" as="targetPoint" />
          </mxGeometry>
        </mxCell>
        <mxCell id="6UK9n3AYxKvv8hEqM6GO-56" value="status == 404&lt;br&gt;error: Email is incorrect" style="edgeLabel;html=1;align=center;verticalAlign=middle;resizable=0;points=[];" parent="6UK9n3AYxKvv8hEqM6GO-55" vertex="1" connectable="0">
          <mxGeometry x="-0.3444" y="-1" relative="1" as="geometry">
            <mxPoint x="38.76" y="10.94" as="offset" />
          </mxGeometry>
        </mxCell>
        <mxCell id="6UK9n3AYxKvv8hEqM6GO-49" value="postRequestNonAuth&lt;br&gt;/api/users/forgotPassword&lt;br&gt;{email}" style="rhombus;whiteSpace=wrap;html=1;" parent="1" vertex="1">
          <mxGeometry x="-80" y="870" width="80" height="80" as="geometry" />
        </mxCell>
        <mxCell id="6UK9n3AYxKvv8hEqM6GO-72" value="submit" style="edgeStyle=orthogonalEdgeStyle;rounded=0;orthogonalLoop=1;jettySize=auto;html=1;exitX=0.5;exitY=1;exitDx=0;exitDy=0;entryX=0.5;entryY=0;entryDx=0;entryDy=0;" parent="1" source="6UK9n3AYxKvv8hEqM6GO-52" target="6UK9n3AYxKvv8hEqM6GO-49" edge="1">
          <mxGeometry relative="1" as="geometry" />
        </mxCell>
        <mxCell id="6UK9n3AYxKvv8hEqM6GO-52" value="Submit" style="ellipse;whiteSpace=wrap;html=1;aspect=fixed;" parent="1" vertex="1">
          <mxGeometry x="-80" y="750" width="80" height="80" as="geometry" />
        </mxCell>
        <mxCell id="6UK9n3AYxKvv8hEqM6GO-62" value="submit" style="edgeStyle=orthogonalEdgeStyle;rounded=0;orthogonalLoop=1;jettySize=auto;html=1;exitX=1;exitY=0.5;exitDx=0;exitDy=0;entryX=0;entryY=0.5;entryDx=0;entryDy=0;" parent="1" source="6UK9n3AYxKvv8hEqM6GO-57" target="6UK9n3AYxKvv8hEqM6GO-59" edge="1">
          <mxGeometry x="-0.5" y="30" relative="1" as="geometry">
            <mxPoint as="offset" />
          </mxGeometry>
        </mxCell>
        <mxCell id="6UK9n3AYxKvv8hEqM6GO-57" value="Submit" style="ellipse;whiteSpace=wrap;html=1;aspect=fixed;" parent="1" vertex="1">
          <mxGeometry x="290" y="870" width="80" height="80" as="geometry" />
        </mxCell>
        <mxCell id="6UK9n3AYxKvv8hEqM6GO-61" value="ConfirmPassword" style="edgeStyle=orthogonalEdgeStyle;rounded=0;orthogonalLoop=1;jettySize=auto;html=1;exitX=0.5;exitY=0;exitDx=0;exitDy=0;entryX=0.5;entryY=1;entryDx=0;entryDy=0;" parent="1" source="6UK9n3AYxKvv8hEqM6GO-59" target="LV5CCHK0L-nCkO7Zp9Pf-56" edge="1">
          <mxGeometry relative="1" as="geometry" />
        </mxCell>
        <mxCell id="6UK9n3AYxKvv8hEqM6GO-59" value="postRequestNonAuth&lt;br&gt;/api/users/checkResetCode&lt;br&gt;{email: navigation.state.param.mail,&lt;br&gt;resetCode: state.code}" style="rhombus;whiteSpace=wrap;html=1;" parent="1" vertex="1">
          <mxGeometry x="450" y="870" width="80" height="80" as="geometry" />
        </mxCell>
        <mxCell id="6UK9n3AYxKvv8hEqM6GO-67" value="submit" style="edgeStyle=orthogonalEdgeStyle;rounded=0;orthogonalLoop=1;jettySize=auto;html=1;exitX=0;exitY=0.5;exitDx=0;exitDy=0;" parent="1" source="6UK9n3AYxKvv8hEqM6GO-63" target="6UK9n3AYxKvv8hEqM6GO-66" edge="1">
          <mxGeometry x="-0.4" y="-20" relative="1" as="geometry">
            <mxPoint x="1" as="offset" />
          </mxGeometry>
        </mxCell>
        <mxCell id="6UK9n3AYxKvv8hEqM6GO-63" value="Submit" style="ellipse;whiteSpace=wrap;html=1;aspect=fixed;" parent="1" vertex="1">
          <mxGeometry x="450" y="630" width="80" height="80" as="geometry" />
        </mxCell>
        <mxCell id="6UK9n3AYxKvv8hEqM6GO-70" style="edgeStyle=orthogonalEdgeStyle;rounded=0;orthogonalLoop=1;jettySize=auto;html=1;exitX=0;exitY=0.5;exitDx=0;exitDy=0;entryX=1;entryY=0.5;entryDx=0;entryDy=0;" parent="1" source="6UK9n3AYxKvv8hEqM6GO-66" target="LV5CCHK0L-nCkO7Zp9Pf-57" edge="1">
          <mxGeometry relative="1" as="geometry" />
        </mxCell>
        <mxCell id="6UK9n3AYxKvv8hEqM6GO-66" value="postRequestNonAuth&lt;br&gt;/api/users/resetPassword&lt;br&gt;{email: navigation.state.param.mail,&lt;br&gt;resetCode: navigation.state.param.resetcode,&lt;br&gt;password: state.password}" style="rhombus;whiteSpace=wrap;html=1;" parent="1" vertex="1">
          <mxGeometry x="270" y="630" width="80" height="80" as="geometry" />
        </mxCell>
        <mxCell id="6UK9n3AYxKvv8hEqM6GO-113" value="" style="edgeStyle=orthogonalEdgeStyle;rounded=0;orthogonalLoop=1;jettySize=auto;html=1;" parent="1" source="6UK9n3AYxKvv8hEqM6GO-73" target="6UK9n3AYxKvv8hEqM6GO-112" edge="1">
          <mxGeometry relative="1" as="geometry">
            <Array as="points">
              <mxPoint x="1110" y="90" />
              <mxPoint x="1110" y="-10" />
            </Array>
          </mxGeometry>
        </mxCell>
        <mxCell id="6UK9n3AYxKvv8hEqM6GO-118" style="edgeStyle=orthogonalEdgeStyle;rounded=0;orthogonalLoop=1;jettySize=auto;html=1;exitX=0.5;exitY=0;exitDx=0;exitDy=0;entryX=0.5;entryY=1;entryDx=0;entryDy=0;" parent="1" source="6UK9n3AYxKvv8hEqM6GO-73" target="6UK9n3AYxKvv8hEqM6GO-117" edge="1">
          <mxGeometry relative="1" as="geometry" />
        </mxCell>
        <mxCell id="6UK9n3AYxKvv8hEqM6GO-124" style="edgeStyle=orthogonalEdgeStyle;rounded=0;orthogonalLoop=1;jettySize=auto;html=1;exitX=1;exitY=0.75;exitDx=0;exitDy=0;entryX=0;entryY=0.5;entryDx=0;entryDy=0;" parent="1" source="6UK9n3AYxKvv8hEqM6GO-73" target="6UK9n3AYxKvv8hEqM6GO-109" edge="1">
          <mxGeometry relative="1" as="geometry" />
        </mxCell>
        <mxCell id="6UK9n3AYxKvv8hEqM6GO-128" value="getAllNetwork" style="edgeStyle=orthogonalEdgeStyle;rounded=0;orthogonalLoop=1;jettySize=auto;html=1;exitX=0.25;exitY=1;exitDx=0;exitDy=0;entryX=0.5;entryY=0;entryDx=0;entryDy=0;" parent="1" source="6UK9n3AYxKvv8hEqM6GO-73" target="6UK9n3AYxKvv8hEqM6GO-127" edge="1">
          <mxGeometry relative="1" as="geometry">
            <Array as="points">
              <mxPoint x="980" y="120" />
            </Array>
          </mxGeometry>
        </mxCell>
        <mxCell id="6UK9n3AYxKvv8hEqM6GO-73" value="DashBoard" style="rounded=1;whiteSpace=wrap;html=1;" parent="1" vertex="1">
          <mxGeometry x="960" y="60" width="120" height="60" as="geometry" />
        </mxCell>
        <mxCell id="6UK9n3AYxKvv8hEqM6GO-122" style="edgeStyle=orthogonalEdgeStyle;rounded=0;orthogonalLoop=1;jettySize=auto;html=1;exitX=0;exitY=0.5;exitDx=0;exitDy=0;entryX=1;entryY=0.5;entryDx=0;entryDy=0;" parent="1" source="6UK9n3AYxKvv8hEqM6GO-75" target="6UK9n3AYxKvv8hEqM6GO-120" edge="1">
          <mxGeometry relative="1" as="geometry" />
        </mxCell>
        <mxCell id="6UK9n3AYxKvv8hEqM6GO-138" style="edgeStyle=orthogonalEdgeStyle;rounded=0;orthogonalLoop=1;jettySize=auto;html=1;exitX=0;exitY=0.75;exitDx=0;exitDy=0;entryX=0.391;entryY=-0.021;entryDx=0;entryDy=0;entryPerimeter=0;" parent="1" source="6UK9n3AYxKvv8hEqM6GO-75" target="6UK9n3AYxKvv8hEqM6GO-137" edge="1">
          <mxGeometry relative="1" as="geometry" />
        </mxCell>
        <mxCell id="6UK9n3AYxKvv8hEqM6GO-75" value="User" style="rounded=1;whiteSpace=wrap;html=1;" parent="1" vertex="1">
          <mxGeometry x="960" y="-140" width="120" height="60" as="geometry" />
        </mxCell>
        <mxCell id="6UK9n3AYxKvv8hEqM6GO-148" value="" style="edgeStyle=orthogonalEdgeStyle;rounded=0;orthogonalLoop=1;jettySize=auto;html=1;" parent="1" source="6UK9n3AYxKvv8hEqM6GO-85" target="6UK9n3AYxKvv8hEqM6GO-147" edge="1">
          <mxGeometry relative="1" as="geometry" />
        </mxCell>
        <mxCell id="6UK9n3AYxKvv8hEqM6GO-85" value="NewNetwork" style="rounded=1;whiteSpace=wrap;html=1;" parent="1" vertex="1">
          <mxGeometry x="1290" y="-40" width="120" height="60" as="geometry" />
        </mxCell>
        <mxCell id="rqY-pGZzfr1y89Op0k2m-28" value="CheckNetwork" style="edgeStyle=orthogonalEdgeStyle;rounded=0;orthogonalLoop=1;jettySize=auto;html=1;entryX=1;entryY=0.5;entryDx=0;entryDy=0;" parent="1" source="6UK9n3AYxKvv8hEqM6GO-90" target="rqY-pGZzfr1y89Op0k2m-27" edge="1">
          <mxGeometry y="-20" relative="1" as="geometry">
            <mxPoint as="offset" />
          </mxGeometry>
        </mxCell>
        <mxCell id="6UK9n3AYxKvv8hEqM6GO-90" value="CheckNetwork" style="rounded=1;whiteSpace=wrap;html=1;" parent="1" vertex="1">
          <mxGeometry x="2900" y="-160" width="120" height="60" as="geometry" />
        </mxCell>
        <mxCell id="k2nFJCx75QEjLjq1cGL5-28" value="setCloseCamera: flase" style="edgeStyle=orthogonalEdgeStyle;rounded=0;orthogonalLoop=1;jettySize=auto;html=1;exitX=1;exitY=0.5;exitDx=0;exitDy=0;entryX=0;entryY=0.5;entryDx=0;entryDy=0;" parent="1" source="6UK9n3AYxKvv8hEqM6GO-100" target="k2nFJCx75QEjLjq1cGL5-27" edge="1">
          <mxGeometry x="-0.25" y="-40" relative="1" as="geometry">
            <mxPoint as="offset" />
          </mxGeometry>
        </mxCell>
        <mxCell id="6UK9n3AYxKvv8hEqM6GO-100" value="ScanQRCode" style="rounded=1;whiteSpace=wrap;html=1;" parent="1" vertex="1">
          <mxGeometry x="1910" y="-430" width="120" height="60" as="geometry" />
        </mxCell>
        <mxCell id="as9aqDVmYMdzE_2a_-bm-4" value="setState({&lt;br&gt;loading:false,&lt;br&gt;device: cap,&lt;br&gt;password: &quot;&quot;,&lt;br&gt;passwordDialogVisible: false,&lt;br&gt;hideBtn: false})" style="edgeStyle=orthogonalEdgeStyle;rounded=0;orthogonalLoop=1;jettySize=auto;html=1;exitX=0.5;exitY=1;exitDx=0;exitDy=0;" parent="1" source="6UK9n3AYxKvv8hEqM6GO-102" edge="1">
          <mxGeometry relative="1" as="geometry">
            <mxPoint x="2560" y="300" as="targetPoint" />
          </mxGeometry>
        </mxCell>
        <mxCell id="6UK9n3AYxKvv8hEqM6GO-102" value="SetLocation" style="rounded=1;whiteSpace=wrap;html=1;" parent="1" vertex="1">
          <mxGeometry x="2500" y="60" width="120" height="60" as="geometry" />
        </mxCell>
        <mxCell id="6UK9n3AYxKvv8hEqM6GO-108" value="Network" style="rounded=1;whiteSpace=wrap;html=1;" parent="1" vertex="1">
          <mxGeometry x="1290" y="175" width="120" height="60" as="geometry" />
        </mxCell>
        <mxCell id="6UK9n3AYxKvv8hEqM6GO-123" style="edgeStyle=orthogonalEdgeStyle;rounded=0;orthogonalLoop=1;jettySize=auto;html=1;exitX=1;exitY=0.5;exitDx=0;exitDy=0;entryX=0;entryY=0.5;entryDx=0;entryDy=0;" parent="1" source="6UK9n3AYxKvv8hEqM6GO-109" target="6UK9n3AYxKvv8hEqM6GO-108" edge="1">
          <mxGeometry relative="1" as="geometry" />
        </mxCell>
        <mxCell id="6UK9n3AYxKvv8hEqM6GO-109" value="Network" style="ellipse;whiteSpace=wrap;html=1;aspect=fixed;" parent="1" vertex="1">
          <mxGeometry x="1140" y="165" width="80" height="80" as="geometry" />
        </mxCell>
        <mxCell id="6UK9n3AYxKvv8hEqM6GO-114" value="" style="edgeStyle=orthogonalEdgeStyle;rounded=0;orthogonalLoop=1;jettySize=auto;html=1;" parent="1" source="6UK9n3AYxKvv8hEqM6GO-112" target="6UK9n3AYxKvv8hEqM6GO-85" edge="1">
          <mxGeometry relative="1" as="geometry" />
        </mxCell>
        <mxCell id="6UK9n3AYxKvv8hEqM6GO-112" value="Launch Setup" style="ellipse;whiteSpace=wrap;html=1;aspect=fixed;" parent="1" vertex="1">
          <mxGeometry x="1140" y="-50" width="80" height="80" as="geometry" />
        </mxCell>
        <mxCell id="6UK9n3AYxKvv8hEqM6GO-119" value="username" style="edgeStyle=orthogonalEdgeStyle;rounded=0;orthogonalLoop=1;jettySize=auto;html=1;" parent="1" source="6UK9n3AYxKvv8hEqM6GO-117" target="6UK9n3AYxKvv8hEqM6GO-75" edge="1">
          <mxGeometry relative="1" as="geometry" />
        </mxCell>
        <mxCell id="6UK9n3AYxKvv8hEqM6GO-117" value="User" style="ellipse;whiteSpace=wrap;html=1;aspect=fixed;" parent="1" vertex="1">
          <mxGeometry x="980" y="-50" width="80" height="80" as="geometry" />
        </mxCell>
        <mxCell id="6UK9n3AYxKvv8hEqM6GO-142" style="edgeStyle=orthogonalEdgeStyle;rounded=0;orthogonalLoop=1;jettySize=auto;html=1;exitX=0;exitY=0.5;exitDx=0;exitDy=0;entryX=1;entryY=0.5;entryDx=0;entryDy=0;" parent="1" source="6UK9n3AYxKvv8hEqM6GO-120" target="6UK9n3AYxKvv8hEqM6GO-141" edge="1">
          <mxGeometry relative="1" as="geometry" />
        </mxCell>
        <mxCell id="6UK9n3AYxKvv8hEqM6GO-120" value="Logout" style="ellipse;whiteSpace=wrap;html=1;aspect=fixed;" parent="1" vertex="1">
          <mxGeometry x="740" y="-150" width="80" height="80" as="geometry" />
        </mxCell>
        <mxCell id="6UK9n3AYxKvv8hEqM6GO-130" value="setState({loading: false,&lt;br&gt;network: result.data.network)&lt;br&gt;_load()" style="edgeStyle=orthogonalEdgeStyle;rounded=0;orthogonalLoop=1;jettySize=auto;html=1;exitX=0.5;exitY=1;exitDx=0;exitDy=0;" parent="1" source="6UK9n3AYxKvv8hEqM6GO-127" edge="1">
          <mxGeometry x="-0.1976" y="22" relative="1" as="geometry">
            <mxPoint x="980" y="310" as="targetPoint" />
            <Array as="points">
              <mxPoint x="980" y="280" />
              <mxPoint x="980" y="280" />
            </Array>
            <mxPoint x="-2" y="-10" as="offset" />
          </mxGeometry>
        </mxCell>
        <mxCell id="6UK9n3AYxKvv8hEqM6GO-127" value="postRequest&lt;br&gt;/api/mesh/allNetwork" style="rhombus;whiteSpace=wrap;html=1;" parent="1" vertex="1">
          <mxGeometry x="940" y="180" width="80" height="80" as="geometry" />
        </mxCell>
        <mxCell id="6UK9n3AYxKvv8hEqM6GO-135" value="&lt;span style=&quot;color: rgb(0 , 0 , 0) ; font-family: &amp;#34;helvetica&amp;#34; ; font-size: 11px ; font-style: normal ; font-weight: 400 ; letter-spacing: normal ; text-align: center ; text-indent: 0px ; text-transform: none ; word-spacing: 0px ; background-color: rgb(255 , 255 , 255) ; display: inline ; float: none&quot;&gt;setState({&lt;/span&gt;&lt;br style=&quot;color: rgb(0 , 0 , 0) ; font-family: &amp;#34;helvetica&amp;#34; ; font-size: 11px ; font-style: normal ; font-weight: 400 ; letter-spacing: normal ; text-align: center ; text-indent: 0px ; text-transform: none ; word-spacing: 0px&quot;&gt;&lt;span style=&quot;color: rgb(0 , 0 , 0) ; font-family: &amp;#34;helvetica&amp;#34; ; font-size: 11px ; font-style: normal ; font-weight: 400 ; letter-spacing: normal ; text-align: center ; text-indent: 0px ; text-transform: none ; word-spacing: 0px ; background-color: rgb(255 , 255 , 255) ; display: inline ; float: none&quot;&gt;loading: false,&lt;/span&gt;&lt;br style=&quot;color: rgb(0 , 0 , 0) ; font-family: &amp;#34;helvetica&amp;#34; ; font-size: 11px ; font-style: normal ; font-weight: 400 ; letter-spacing: normal ; text-align: center ; text-indent: 0px ; text-transform: none ; word-spacing: 0px&quot;&gt;&lt;span style=&quot;color: rgb(0 , 0 , 0) ; font-family: &amp;#34;helvetica&amp;#34; ; font-size: 11px ; font-style: normal ; font-weight: 400 ; letter-spacing: normal ; text-align: center ; text-indent: 0px ; text-transform: none ; word-spacing: 0px ; background-color: rgb(255 , 255 , 255) ; display: inline ; float: none&quot;&gt;networks: result.data.network})&lt;/span&gt;" style="edgeStyle=orthogonalEdgeStyle;rounded=0;orthogonalLoop=1;jettySize=auto;html=1;exitX=0;exitY=0.5;exitDx=0;exitDy=0;entryX=0.55;entryY=0.95;entryDx=0;entryDy=0;entryPerimeter=0;" parent="1" source="6UK9n3AYxKvv8hEqM6GO-131" target="6UK9n3AYxKvv8hEqM6GO-134" edge="1">
          <mxGeometry x="-0.0565" y="-61" relative="1" as="geometry">
            <mxPoint x="-107" y="-41" as="offset" />
          </mxGeometry>
        </mxCell>
        <mxCell id="6UK9n3AYxKvv8hEqM6GO-131" value="&lt;span&gt;postRequest&lt;/span&gt;&lt;br&gt;&lt;span&gt;/api/mesh/allNetwork&lt;/span&gt;" style="rhombus;whiteSpace=wrap;html=1;" parent="1" vertex="1">
          <mxGeometry x="940" y="310" width="80" height="80" as="geometry" />
        </mxCell>
        <mxCell id="6UK9n3AYxKvv8hEqM6GO-136" value="remove &lt;br&gt;ccmponentDidFocus&lt;br&gt;componentDidBlur&lt;br&gt;setState({networks: [],&lt;br&gt;loading:true})" style="edgeStyle=orthogonalEdgeStyle;rounded=0;orthogonalLoop=1;jettySize=auto;html=1;entryX=0;entryY=0.75;entryDx=0;entryDy=0;" parent="1" source="6UK9n3AYxKvv8hEqM6GO-134" target="6UK9n3AYxKvv8hEqM6GO-73" edge="1">
          <mxGeometry x="-0.2784" y="10" relative="1" as="geometry">
            <Array as="points">
              <mxPoint x="860" y="195" />
              <mxPoint x="860" y="105" />
            </Array>
            <mxPoint y="1" as="offset" />
          </mxGeometry>
        </mxCell>
        <mxCell id="6UK9n3AYxKvv8hEqM6GO-134" value="Unmount" style="ellipse;shape=cloud;whiteSpace=wrap;html=1;" parent="1" vertex="1">
          <mxGeometry x="790" y="180" width="120" height="80" as="geometry" />
        </mxCell>
        <mxCell id="6UK9n3AYxKvv8hEqM6GO-139" style="edgeStyle=orthogonalEdgeStyle;rounded=0;orthogonalLoop=1;jettySize=auto;html=1;exitX=0.5;exitY=1;exitDx=0;exitDy=0;entryX=0;entryY=0.25;entryDx=0;entryDy=0;" parent="1" source="6UK9n3AYxKvv8hEqM6GO-137" target="6UK9n3AYxKvv8hEqM6GO-73" edge="1">
          <mxGeometry relative="1" as="geometry" />
        </mxCell>
        <mxCell id="6UK9n3AYxKvv8hEqM6GO-137" value="Go Back" style="ellipse;whiteSpace=wrap;html=1;aspect=fixed;" parent="1" vertex="1">
          <mxGeometry x="860" y="-50" width="80" height="80" as="geometry" />
        </mxCell>
        <mxCell id="6UK9n3AYxKvv8hEqM6GO-143" style="edgeStyle=orthogonalEdgeStyle;rounded=0;orthogonalLoop=1;jettySize=auto;html=1;exitX=0.5;exitY=1;exitDx=0;exitDy=0;" parent="1" source="6UK9n3AYxKvv8hEqM6GO-141" edge="1">
          <mxGeometry relative="1" as="geometry">
            <mxPoint x="65" y="360" as="targetPoint" />
            <Array as="points">
              <mxPoint x="640" y="140" />
              <mxPoint x="310" y="140" />
              <mxPoint x="310" y="230" />
              <mxPoint x="65" y="230" />
            </Array>
          </mxGeometry>
        </mxCell>
        <mxCell id="6UK9n3AYxKvv8hEqM6GO-144" value="removeToken()&lt;br&gt;setState({ authenticated: authStatus.UNAUTHENTICATED})" style="edgeLabel;html=1;align=center;verticalAlign=middle;resizable=0;points=[];" parent="6UK9n3AYxKvv8hEqM6GO-143" vertex="1" connectable="0">
          <mxGeometry x="-0.9285" y="1" relative="1" as="geometry">
            <mxPoint y="-1" as="offset" />
          </mxGeometry>
        </mxCell>
        <mxCell id="6UK9n3AYxKvv8hEqM6GO-141" value="getRequest&lt;br&gt;/api/users/logout&lt;br&gt;{token}" style="rhombus;whiteSpace=wrap;html=1;" parent="1" vertex="1">
          <mxGeometry x="600" y="-150" width="80" height="80" as="geometry" />
        </mxCell>
        <mxCell id="6UK9n3AYxKvv8hEqM6GO-150" value="" style="edgeStyle=orthogonalEdgeStyle;rounded=0;orthogonalLoop=1;jettySize=auto;html=1;" parent="1" source="6UK9n3AYxKvv8hEqM6GO-147" target="6UK9n3AYxKvv8hEqM6GO-149" edge="1">
          <mxGeometry relative="1" as="geometry" />
        </mxCell>
        <mxCell id="6UK9n3AYxKvv8hEqM6GO-147" value="Continue" style="ellipse;whiteSpace=wrap;html=1;aspect=fixed;" parent="1" vertex="1">
          <mxGeometry x="1310" y="-150" width="80" height="80" as="geometry" />
        </mxCell>
        <mxCell id="6UK9n3AYxKvv8hEqM6GO-152" value="" style="edgeStyle=orthogonalEdgeStyle;rounded=0;orthogonalLoop=1;jettySize=auto;html=1;" parent="1" source="6UK9n3AYxKvv8hEqM6GO-149" target="6UK9n3AYxKvv8hEqM6GO-151" edge="1">
          <mxGeometry relative="1" as="geometry" />
        </mxCell>
        <mxCell id="6UK9n3AYxKvv8hEqM6GO-149" value="PowerOn" style="rounded=1;whiteSpace=wrap;html=1;" parent="1" vertex="1">
          <mxGeometry x="1290" y="-250" width="120" height="60" as="geometry" />
        </mxCell>
        <mxCell id="6UK9n3AYxKvv8hEqM6GO-154" value="" style="edgeStyle=orthogonalEdgeStyle;rounded=0;orthogonalLoop=1;jettySize=auto;html=1;" parent="1" source="6UK9n3AYxKvv8hEqM6GO-151" target="6UK9n3AYxKvv8hEqM6GO-153" edge="1">
          <mxGeometry relative="1" as="geometry" />
        </mxCell>
        <mxCell id="6UK9n3AYxKvv8hEqM6GO-151" value="Continue" style="ellipse;whiteSpace=wrap;html=1;aspect=fixed;" parent="1" vertex="1">
          <mxGeometry x="1310" y="-370" width="80" height="80" as="geometry" />
        </mxCell>
        <mxCell id="6UK9n3AYxKvv8hEqM6GO-156" value="" style="edgeStyle=orthogonalEdgeStyle;rounded=0;orthogonalLoop=1;jettySize=auto;html=1;" parent="1" source="6UK9n3AYxKvv8hEqM6GO-153" target="6UK9n3AYxKvv8hEqM6GO-155" edge="1">
          <mxGeometry relative="1" as="geometry" />
        </mxCell>
        <mxCell id="6UK9n3AYxKvv8hEqM6GO-153" value="ConfirmReady" style="rounded=1;whiteSpace=wrap;html=1;" parent="1" vertex="1">
          <mxGeometry x="1290" y="-470" width="120" height="60" as="geometry" />
        </mxCell>
        <mxCell id="6UK9n3AYxKvv8hEqM6GO-158" value="" style="edgeStyle=orthogonalEdgeStyle;rounded=0;orthogonalLoop=1;jettySize=auto;html=1;" parent="1" source="6UK9n3AYxKvv8hEqM6GO-155" target="6UK9n3AYxKvv8hEqM6GO-157" edge="1">
          <mxGeometry relative="1" as="geometry" />
        </mxCell>
        <mxCell id="6UK9n3AYxKvv8hEqM6GO-155" value="Continue" style="ellipse;whiteSpace=wrap;html=1;aspect=fixed;" parent="1" vertex="1">
          <mxGeometry x="1470" y="-480" width="80" height="80" as="geometry" />
        </mxCell>
        <mxCell id="6UK9n3AYxKvv8hEqM6GO-160" value="" style="edgeStyle=orthogonalEdgeStyle;rounded=0;orthogonalLoop=1;jettySize=auto;html=1;" parent="1" source="6UK9n3AYxKvv8hEqM6GO-157" target="6UK9n3AYxKvv8hEqM6GO-159" edge="1">
          <mxGeometry relative="1" as="geometry" />
        </mxCell>
        <mxCell id="6UK9n3AYxKvv8hEqM6GO-157" value="WaitingForReady" style="rounded=1;whiteSpace=wrap;html=1;" parent="1" vertex="1">
          <mxGeometry x="1450" y="-360" width="120" height="60" as="geometry" />
        </mxCell>
        <mxCell id="6UK9n3AYxKvv8hEqM6GO-162" value="" style="edgeStyle=orthogonalEdgeStyle;rounded=0;orthogonalLoop=1;jettySize=auto;html=1;" parent="1" source="6UK9n3AYxKvv8hEqM6GO-159" target="6UK9n3AYxKvv8hEqM6GO-161" edge="1">
          <mxGeometry relative="1" as="geometry" />
        </mxCell>
        <mxCell id="6UK9n3AYxKvv8hEqM6GO-159" value="Continue" style="ellipse;whiteSpace=wrap;html=1;aspect=fixed;" parent="1" vertex="1">
          <mxGeometry x="1470" y="-260" width="80" height="80" as="geometry" />
        </mxCell>
        <mxCell id="k2nFJCx75QEjLjq1cGL5-3" style="edgeStyle=orthogonalEdgeStyle;rounded=0;orthogonalLoop=1;jettySize=auto;html=1;exitX=1;exitY=0.5;exitDx=0;exitDy=0;" parent="1" source="6UK9n3AYxKvv8hEqM6GO-161" edge="1">
          <mxGeometry relative="1" as="geometry">
            <mxPoint x="1680" y="-160" as="targetPoint" />
          </mxGeometry>
        </mxCell>
        <mxCell id="k2nFJCx75QEjLjq1cGL5-4" value="BleManager.start()&lt;br&gt;handleDiscover.set( handleDiscoverPeripheral)&lt;br&gt;handleStop.set(handleDtopPeripheral)" style="edgeLabel;html=1;align=center;verticalAlign=middle;resizable=0;points=[];" parent="k2nFJCx75QEjLjq1cGL5-3" vertex="1" connectable="0">
          <mxGeometry x="-0.1111" relative="1" as="geometry">
            <mxPoint x="69" as="offset" />
          </mxGeometry>
        </mxCell>
        <mxCell id="6UK9n3AYxKvv8hEqM6GO-161" value="ScanDevice" style="rounded=1;whiteSpace=wrap;html=1;" parent="1" vertex="1">
          <mxGeometry x="1450" y="-140" width="120" height="60" as="geometry" />
        </mxCell>
        <mxCell id="k2nFJCx75QEjLjq1cGL5-1" value="" style="rounded=1;whiteSpace=wrap;html=1;" parent="1" vertex="1">
          <mxGeometry x="920" y="435" width="120" height="60" as="geometry" />
        </mxCell>
        <mxCell id="k2nFJCx75QEjLjq1cGL5-8" value="StartScan" style="edgeStyle=orthogonalEdgeStyle;rounded=0;orthogonalLoop=1;jettySize=auto;html=1;" parent="1" source="k2nFJCx75QEjLjq1cGL5-2" edge="1">
          <mxGeometry relative="1" as="geometry">
            <mxPoint x="1680" y="-310" as="targetPoint" />
          </mxGeometry>
        </mxCell>
        <mxCell id="k2nFJCx75QEjLjq1cGL5-9" value="2second&amp;nbsp;&lt;br&gt;startScan()" style="edgeStyle=orthogonalEdgeStyle;rounded=0;orthogonalLoop=1;jettySize=auto;html=1;exitX=1;exitY=0.5;exitDx=0;exitDy=0;" parent="1" source="k2nFJCx75QEjLjq1cGL5-2" edge="1">
          <mxGeometry x="0.04" y="20" relative="1" as="geometry">
            <mxPoint x="1710" y="-160" as="targetPoint" />
            <Array as="points">
              <mxPoint x="1740" y="-205" />
              <mxPoint x="1740" y="-145" />
              <mxPoint x="1710" y="-145" />
            </Array>
            <mxPoint as="offset" />
          </mxGeometry>
        </mxCell>
        <mxCell id="k2nFJCx75QEjLjq1cGL5-2" value="Platform.OS == Android &amp;amp;&amp;amp;&lt;br&gt;Platform..Version &amp;gt;= 23" style="rhombus;whiteSpace=wrap;html=1;" parent="1" vertex="1">
          <mxGeometry x="1640" y="-245" width="80" height="80" as="geometry" />
        </mxCell>
        <mxCell id="k2nFJCx75QEjLjq1cGL5-12" value="false" style="edgeStyle=orthogonalEdgeStyle;rounded=0;orthogonalLoop=1;jettySize=auto;html=1;exitX=0.5;exitY=0;exitDx=0;exitDy=0;entryX=0.5;entryY=1;entryDx=0;entryDy=0;" parent="1" source="k2nFJCx75QEjLjq1cGL5-10" target="k2nFJCx75QEjLjq1cGL5-11" edge="1">
          <mxGeometry relative="1" as="geometry" />
        </mxCell>
        <mxCell id="k2nFJCx75QEjLjq1cGL5-19" style="edgeStyle=orthogonalEdgeStyle;rounded=0;orthogonalLoop=1;jettySize=auto;html=1;exitX=1;exitY=0.5;exitDx=0;exitDy=0;entryX=0;entryY=0.5;entryDx=0;entryDy=0;" parent="1" source="k2nFJCx75QEjLjq1cGL5-10" target="k2nFJCx75QEjLjq1cGL5-18" edge="1">
          <mxGeometry relative="1" as="geometry" />
        </mxCell>
        <mxCell id="k2nFJCx75QEjLjq1cGL5-21" value="Not found" style="edgeStyle=orthogonalEdgeStyle;rounded=0;orthogonalLoop=1;jettySize=auto;html=1;exitX=1;exitY=0.5;exitDx=0;exitDy=0;entryX=0;entryY=0.5;entryDx=0;entryDy=0;" parent="1" source="k2nFJCx75QEjLjq1cGL5-10" target="k2nFJCx75QEjLjq1cGL5-20" edge="1">
          <mxGeometry x="-0.3846" y="20" relative="1" as="geometry">
            <mxPoint x="40" as="offset" />
          </mxGeometry>
        </mxCell>
        <mxCell id="k2nFJCx75QEjLjq1cGL5-10" value="Device.length == 0" style="rhombus;whiteSpace=wrap;html=1;" parent="1" vertex="1">
          <mxGeometry x="1640" y="-390" width="80" height="80" as="geometry" />
        </mxCell>
        <mxCell id="k2nFJCx75QEjLjq1cGL5-15" style="edgeStyle=orthogonalEdgeStyle;rounded=0;orthogonalLoop=1;jettySize=auto;html=1;exitX=1;exitY=0.5;exitDx=0;exitDy=0;entryX=0.25;entryY=0;entryDx=0;entryDy=0;" parent="1" source="k2nFJCx75QEjLjq1cGL5-11" target="k2nFJCx75QEjLjq1cGL5-14" edge="1">
          <mxGeometry relative="1" as="geometry">
            <Array as="points">
              <mxPoint x="2320" y="-480" />
            </Array>
          </mxGeometry>
        </mxCell>
        <mxCell id="k2nFJCx75QEjLjq1cGL5-25" value="cap: parseQRCode(m),&lt;br&gt;onGoBack: StartSCan" style="edgeLabel;html=1;align=center;verticalAlign=middle;resizable=0;points=[];" parent="k2nFJCx75QEjLjq1cGL5-15" vertex="1" connectable="0">
          <mxGeometry x="-0.26" relative="1" as="geometry">
            <mxPoint as="offset" />
          </mxGeometry>
        </mxCell>
        <mxCell id="k2nFJCx75QEjLjq1cGL5-16" style="edgeStyle=orthogonalEdgeStyle;rounded=0;orthogonalLoop=1;jettySize=auto;html=1;exitX=0.5;exitY=0;exitDx=0;exitDy=0;entryX=0.5;entryY=0;entryDx=0;entryDy=0;" parent="1" source="k2nFJCx75QEjLjq1cGL5-11" target="k2nFJCx75QEjLjq1cGL5-14" edge="1">
          <mxGeometry relative="1" as="geometry">
            <Array as="points">
              <mxPoint x="1680" y="-530" />
              <mxPoint x="2350" y="-530" />
            </Array>
          </mxGeometry>
        </mxCell>
        <mxCell id="k2nFJCx75QEjLjq1cGL5-17" value="cap: parseQRCode(m),&lt;br&gt;onGoBack: StartSCan" style="edgeLabel;html=1;align=center;verticalAlign=middle;resizable=0;points=[];" parent="k2nFJCx75QEjLjq1cGL5-16" vertex="1" connectable="0">
          <mxGeometry x="-0.392" y="-3" relative="1" as="geometry">
            <mxPoint x="3.3299999999999983" y="-13" as="offset" />
          </mxGeometry>
        </mxCell>
        <mxCell id="k2nFJCx75QEjLjq1cGL5-11" value="Device.length == 1" style="rhombus;whiteSpace=wrap;html=1;" parent="1" vertex="1">
          <mxGeometry x="1640" y="-520" width="80" height="80" as="geometry" />
        </mxCell>
        <mxCell id="rqY-pGZzfr1y89Op0k2m-4" value="WifiManager.getCurrentWifiSSID" style="edgeStyle=orthogonalEdgeStyle;rounded=0;orthogonalLoop=1;jettySize=auto;html=1;entryX=0.5;entryY=1;entryDx=0;entryDy=0;exitX=0.75;exitY=1;exitDx=0;exitDy=0;" parent="1" source="k2nFJCx75QEjLjq1cGL5-14" target="rqY-pGZzfr1y89Op0k2m-3" edge="1">
          <mxGeometry x="0.2593" y="-20" relative="1" as="geometry">
            <Array as="points">
              <mxPoint x="2380" y="-310" />
              <mxPoint x="2620" y="-310" />
            </Array>
            <mxPoint as="offset" />
          </mxGeometry>
        </mxCell>
        <mxCell id="k2nFJCx75QEjLjq1cGL5-14" value="connectWifi" style="rounded=1;whiteSpace=wrap;html=1;" parent="1" vertex="1">
          <mxGeometry x="2290" y="-440" width="120" height="60" as="geometry" />
        </mxCell>
        <mxCell id="k2nFJCx75QEjLjq1cGL5-23" style="edgeStyle=orthogonalEdgeStyle;rounded=0;orthogonalLoop=1;jettySize=auto;html=1;exitX=0.5;exitY=1;exitDx=0;exitDy=0;entryX=0.5;entryY=1;entryDx=0;entryDy=0;" parent="1" source="k2nFJCx75QEjLjq1cGL5-18" target="k2nFJCx75QEjLjq1cGL5-10" edge="1">
          <mxGeometry relative="1" as="geometry">
            <mxPoint x="1750" y="-210" as="targetPoint" />
            <Array as="points">
              <mxPoint x="1840" y="-250" />
              <mxPoint x="1680" y="-250" />
            </Array>
          </mxGeometry>
        </mxCell>
        <mxCell id="k2nFJCx75QEjLjq1cGL5-26" value="StartSCan" style="edgeLabel;html=1;align=center;verticalAlign=middle;resizable=0;points=[];" parent="k2nFJCx75QEjLjq1cGL5-23" vertex="1" connectable="0">
          <mxGeometry x="-0.2857" y="-11" relative="1" as="geometry">
            <mxPoint x="-11" y="11" as="offset" />
          </mxGeometry>
        </mxCell>
        <mxCell id="k2nFJCx75QEjLjq1cGL5-18" value="Retry" style="ellipse;whiteSpace=wrap;html=1;aspect=fixed;" parent="1" vertex="1">
          <mxGeometry x="1800" y="-340" width="80" height="80" as="geometry" />
        </mxCell>
        <mxCell id="k2nFJCx75QEjLjq1cGL5-22" style="edgeStyle=orthogonalEdgeStyle;rounded=0;orthogonalLoop=1;jettySize=auto;html=1;exitX=1;exitY=0.5;exitDx=0;exitDy=0;entryX=0;entryY=0.5;entryDx=0;entryDy=0;" parent="1" source="k2nFJCx75QEjLjq1cGL5-20" target="6UK9n3AYxKvv8hEqM6GO-100" edge="1">
          <mxGeometry relative="1" as="geometry" />
        </mxCell>
        <mxCell id="k2nFJCx75QEjLjq1cGL5-20" value="Use QR Code" style="ellipse;whiteSpace=wrap;html=1;aspect=fixed;" parent="1" vertex="1">
          <mxGeometry x="1800" y="-440" width="80" height="80" as="geometry" />
        </mxCell>
        <mxCell id="k2nFJCx75QEjLjq1cGL5-29" style="edgeStyle=orthogonalEdgeStyle;rounded=0;orthogonalLoop=1;jettySize=auto;html=1;exitX=1;exitY=0.5;exitDx=0;exitDy=0;" parent="1" source="k2nFJCx75QEjLjq1cGL5-27" edge="1">
          <mxGeometry relative="1" as="geometry">
            <mxPoint x="2160" y="-450" as="targetPoint" />
          </mxGeometry>
        </mxCell>
        <mxCell id="k2nFJCx75QEjLjq1cGL5-30" value="LinkingUrl app-seeting" style="edgeLabel;html=1;align=center;verticalAlign=middle;resizable=0;points=[];" parent="k2nFJCx75QEjLjq1cGL5-29" vertex="1" connectable="0">
          <mxGeometry x="0.3089" relative="1" as="geometry">
            <mxPoint x="21.43" y="20" as="offset" />
          </mxGeometry>
        </mxCell>
        <mxCell id="k2nFJCx75QEjLjq1cGL5-32" value="CloseCamera: tfalse" style="edgeStyle=orthogonalEdgeStyle;rounded=0;orthogonalLoop=1;jettySize=auto;html=1;" parent="1" source="k2nFJCx75QEjLjq1cGL5-27" target="k2nFJCx75QEjLjq1cGL5-31" edge="1">
          <mxGeometry relative="1" as="geometry" />
        </mxCell>
        <mxCell id="k2nFJCx75QEjLjq1cGL5-27" value="notAuthorizedView" style="rhombus;whiteSpace=wrap;html=1;" parent="1" vertex="1">
          <mxGeometry x="2110" y="-440" width="80" height="80" as="geometry" />
        </mxCell>
        <mxCell id="rqY-pGZzfr1y89Op0k2m-2" value="&lt;span style=&quot;color: rgb(0 , 0 , 0) ; font-size: 11px ; font-style: normal ; font-weight: 400 ; letter-spacing: normal ; text-align: center ; text-indent: 0px ; text-transform: none ; word-spacing: 0px ; background-color: rgb(255 , 255 , 255) ; font-family: &amp;#34;helvetica&amp;#34; ; display: inline ; float: none&quot;&gt;CloseCamera: true&lt;/span&gt;&lt;br style=&quot;color: rgb(0 , 0 , 0) ; font-size: 11px ; font-style: normal ; font-weight: 400 ; letter-spacing: normal ; text-align: center ; text-indent: 0px ; text-transform: none ; word-spacing: 0px ; font-family: &amp;#34;helvetica&amp;#34;&quot;&gt;&lt;span style=&quot;color: rgb(0 , 0 , 0) ; font-size: 11px ; font-style: normal ; font-weight: 400 ; letter-spacing: normal ; text-align: center ; text-indent: 0px ; text-transform: none ; word-spacing: 0px ; background-color: rgb(255 , 255 , 255) ; font-family: &amp;#34;helvetica&amp;#34; ; display: inline ; float: none&quot;&gt;cap:ParseQRCode(date),&lt;/span&gt;&lt;br style=&quot;color: rgb(0 , 0 , 0) ; font-size: 11px ; font-style: normal ; font-weight: 400 ; letter-spacing: normal ; text-align: center ; text-indent: 0px ; text-transform: none ; word-spacing: 0px ; font-family: &amp;#34;helvetica&amp;#34;&quot;&gt;&lt;span style=&quot;color: rgb(0 , 0 , 0) ; font-size: 11px ; font-style: normal ; font-weight: 400 ; letter-spacing: normal ; text-align: center ; text-indent: 0px ; text-transform: none ; word-spacing: 0px ; background-color: rgb(255 , 255 , 255) ; font-family: &amp;#34;helvetica&amp;#34; ; display: inline ; float: none&quot;&gt;OnGoBack:refresh&lt;/span&gt;" style="edgeStyle=orthogonalEdgeStyle;rounded=0;orthogonalLoop=1;jettySize=auto;html=1;entryX=0.25;entryY=1;entryDx=0;entryDy=0;" parent="1" source="k2nFJCx75QEjLjq1cGL5-31" target="k2nFJCx75QEjLjq1cGL5-14" edge="1">
          <mxGeometry x="-0.2195" y="10" relative="1" as="geometry">
            <mxPoint as="offset" />
          </mxGeometry>
        </mxCell>
        <mxCell id="k2nFJCx75QEjLjq1cGL5-31" value="Date.startwith(04f021)" style="rhombus;whiteSpace=wrap;html=1;" parent="1" vertex="1">
          <mxGeometry x="2110" y="-270" width="80" height="80" as="geometry" />
        </mxCell>
        <mxCell id="rqY-pGZzfr1y89Op0k2m-6" value="true&lt;br&gt;detectCAP" style="edgeStyle=orthogonalEdgeStyle;rounded=0;orthogonalLoop=1;jettySize=auto;html=1;exitX=0.5;exitY=0;exitDx=0;exitDy=0;entryX=0.5;entryY=1;entryDx=0;entryDy=0;" parent="1" source="rqY-pGZzfr1y89Op0k2m-3" target="rqY-pGZzfr1y89Op0k2m-5" edge="1">
          <mxGeometry x="-0.2857" y="10" relative="1" as="geometry">
            <mxPoint as="offset" />
          </mxGeometry>
        </mxCell>
        <mxCell id="rqY-pGZzfr1y89Op0k2m-12" value="ConnectTowIF&lt;br&gt;&lt;span style=&quot;font-size: 12px ; background-color: rgb(248 , 249 , 250)&quot;&gt;WifiManager.connectToProtectSSID(&lt;/span&gt;&lt;br style=&quot;font-size: 12px ; background-color: rgb(248 , 249 , 250)&quot;&gt;&lt;span style=&quot;font-size: 12px ; background-color: rgb(248 , 249 , 250)&quot;&gt;{capSSID, capPassword, false})&lt;br&gt;WifiManager.getCurrentWifiSSID&lt;br&gt;&lt;/span&gt;" style="edgeStyle=orthogonalEdgeStyle;rounded=0;orthogonalLoop=1;jettySize=auto;html=1;exitX=1;exitY=0.5;exitDx=0;exitDy=0;entryX=0;entryY=0.5;entryDx=0;entryDy=0;" parent="1" edge="1">
          <mxGeometry y="-49" relative="1" as="geometry">
            <mxPoint x="2660" y="-409" as="sourcePoint" />
            <mxPoint x="2800" y="-409" as="targetPoint" />
            <mxPoint as="offset" />
          </mxGeometry>
        </mxCell>
        <mxCell id="rqY-pGZzfr1y89Op0k2m-3" value="ssid == WifiManager.getcurrentWifiSSID.id" style="rhombus;whiteSpace=wrap;html=1;" parent="1" vertex="1">
          <mxGeometry x="2580" y="-450" width="80" height="80" as="geometry" />
        </mxCell>
        <mxCell id="rqY-pGZzfr1y89Op0k2m-18" style="edgeStyle=orthogonalEdgeStyle;rounded=0;orthogonalLoop=1;jettySize=auto;html=1;exitX=0.5;exitY=0;exitDx=0;exitDy=0;entryX=0.07;entryY=0.4;entryDx=0;entryDy=0;entryPerimeter=0;" parent="1" source="rqY-pGZzfr1y89Op0k2m-5" target="rqY-pGZzfr1y89Op0k2m-17" edge="1">
          <mxGeometry relative="1" as="geometry" />
        </mxCell>
        <mxCell id="rqY-pGZzfr1y89Op0k2m-21" style="edgeStyle=orthogonalEdgeStyle;rounded=0;orthogonalLoop=1;jettySize=auto;html=1;exitX=0;exitY=0.5;exitDx=0;exitDy=0;" parent="1" source="rqY-pGZzfr1y89Op0k2m-5" target="rqY-pGZzfr1y89Op0k2m-22" edge="1">
          <mxGeometry relative="1" as="geometry">
            <mxPoint x="2490" y="-560" as="targetPoint" />
          </mxGeometry>
        </mxCell>
        <mxCell id="rqY-pGZzfr1y89Op0k2m-23" value="devices.lnegth == 0&lt;br&gt;error cannot connect wifi" style="edgeLabel;html=1;align=center;verticalAlign=middle;resizable=0;points=[];" parent="rqY-pGZzfr1y89Op0k2m-21" vertex="1" connectable="0">
          <mxGeometry x="0.2462" relative="1" as="geometry">
            <mxPoint x="-34" y="-50" as="offset" />
          </mxGeometry>
        </mxCell>
        <mxCell id="rqY-pGZzfr1y89Op0k2m-5" value="BouhourService.resolve(cap.)&lt;br&gt;devices.length &amp;gt; 0" style="rhombus;whiteSpace=wrap;html=1;" parent="1" vertex="1">
          <mxGeometry x="2580" y="-600" width="80" height="80" as="geometry" />
        </mxCell>
        <mxCell id="rqY-pGZzfr1y89Op0k2m-24" value="" style="edgeStyle=orthogonalEdgeStyle;rounded=0;orthogonalLoop=1;jettySize=auto;html=1;" parent="1" source="rqY-pGZzfr1y89Op0k2m-7" target="rqY-pGZzfr1y89Op0k2m-3" edge="1">
          <mxGeometry relative="1" as="geometry" />
        </mxCell>
        <mxCell id="rqY-pGZzfr1y89Op0k2m-26" value="WifiManager.getCurrentWifiSSID({&lt;br&gt;cap.ssid, &quot;password&quot;})" style="edgeLabel;html=1;align=center;verticalAlign=middle;resizable=0;points=[];" parent="rqY-pGZzfr1y89Op0k2m-24" vertex="1" connectable="0">
          <mxGeometry x="-0.5" y="2" relative="1" as="geometry">
            <mxPoint x="-30" y="82" as="offset" />
          </mxGeometry>
        </mxCell>
        <mxCell id="rqY-pGZzfr1y89Op0k2m-7" value="Retry" style="ellipse;whiteSpace=wrap;html=1;aspect=fixed;" parent="1" vertex="1">
          <mxGeometry x="2430" y="-500" width="80" height="80" as="geometry" />
        </mxCell>
        <mxCell id="rqY-pGZzfr1y89Op0k2m-13" style="edgeStyle=orthogonalEdgeStyle;rounded=0;orthogonalLoop=1;jettySize=auto;html=1;exitX=0.5;exitY=0;exitDx=0;exitDy=0;entryX=1;entryY=0.5;entryDx=0;entryDy=0;" parent="1" source="rqY-pGZzfr1y89Op0k2m-11" target="rqY-pGZzfr1y89Op0k2m-5" edge="1">
          <mxGeometry relative="1" as="geometry" />
        </mxCell>
        <mxCell id="rqY-pGZzfr1y89Op0k2m-14" value="true&lt;br&gt;detectCAP" style="edgeLabel;html=1;align=center;verticalAlign=middle;resizable=0;points=[];" parent="rqY-pGZzfr1y89Op0k2m-13" vertex="1" connectable="0">
          <mxGeometry x="-0.3333" y="-4" relative="1" as="geometry">
            <mxPoint as="offset" />
          </mxGeometry>
        </mxCell>
        <mxCell id="rqY-pGZzfr1y89Op0k2m-11" value="ssid == WifiManager.getcurrentWifiSSID.id" style="rhombus;whiteSpace=wrap;html=1;" parent="1" vertex="1">
          <mxGeometry x="2800" y="-450" width="80" height="80" as="geometry" />
        </mxCell>
        <mxCell id="rqY-pGZzfr1y89Op0k2m-19" style="edgeStyle=orthogonalEdgeStyle;rounded=0;orthogonalLoop=1;jettySize=auto;html=1;entryX=0.45;entryY=-0.017;entryDx=0;entryDy=0;entryPerimeter=0;" parent="1" source="rqY-pGZzfr1y89Op0k2m-17" target="6UK9n3AYxKvv8hEqM6GO-90" edge="1">
          <mxGeometry relative="1" as="geometry" />
        </mxCell>
        <mxCell id="rqY-pGZzfr1y89Op0k2m-20" value="{cap: devices[0]}" style="edgeLabel;html=1;align=center;verticalAlign=middle;resizable=0;points=[];" parent="rqY-pGZzfr1y89Op0k2m-19" vertex="1" connectable="0">
          <mxGeometry x="-0.736" y="-2" relative="1" as="geometry">
            <mxPoint as="offset" />
          </mxGeometry>
        </mxCell>
        <mxCell id="rqY-pGZzfr1y89Op0k2m-17" value="Connecting To WIFI&lt;br&gt;CAP" style="ellipse;shape=cloud;whiteSpace=wrap;html=1;" parent="1" vertex="1">
          <mxGeometry x="2890" y="-650" width="120" height="80" as="geometry" />
        </mxCell>
        <mxCell id="rqY-pGZzfr1y89Op0k2m-25" style="edgeStyle=orthogonalEdgeStyle;rounded=0;orthogonalLoop=1;jettySize=auto;html=1;entryX=0;entryY=0.5;entryDx=0;entryDy=0;exitX=0.31;exitY=0.8;exitDx=0;exitDy=0;exitPerimeter=0;" parent="1" source="rqY-pGZzfr1y89Op0k2m-22" target="rqY-pGZzfr1y89Op0k2m-7" edge="1">
          <mxGeometry relative="1" as="geometry" />
        </mxCell>
        <mxCell id="rqY-pGZzfr1y89Op0k2m-22" value="Failed to connecct WIFI" style="ellipse;shape=cloud;whiteSpace=wrap;html=1;" parent="1" vertex="1">
          <mxGeometry x="2370" y="-600" width="120" height="80" as="geometry" />
        </mxCell>
        <mxCell id="rqY-pGZzfr1y89Op0k2m-31" style="edgeStyle=orthogonalEdgeStyle;rounded=0;orthogonalLoop=1;jettySize=auto;html=1;exitX=0;exitY=0.5;exitDx=0;exitDy=0;" parent="1" source="rqY-pGZzfr1y89Op0k2m-27" target="rqY-pGZzfr1y89Op0k2m-29" edge="1">
          <mxGeometry relative="1" as="geometry" />
        </mxCell>
        <mxCell id="rqY-pGZzfr1y89Op0k2m-35" style="edgeStyle=orthogonalEdgeStyle;rounded=0;orthogonalLoop=1;jettySize=auto;html=1;exitX=0.5;exitY=1;exitDx=0;exitDy=0;entryX=0.501;entryY=0.074;entryDx=0;entryDy=0;entryPerimeter=0;" parent="1" source="rqY-pGZzfr1y89Op0k2m-27" target="rqY-pGZzfr1y89Op0k2m-34" edge="1">
          <mxGeometry relative="1" as="geometry" />
        </mxCell>
        <mxCell id="rqY-pGZzfr1y89Op0k2m-38" value="can not access&amp;nbsp;&lt;br&gt;to the internet" style="edgeLabel;html=1;align=center;verticalAlign=middle;resizable=0;points=[];" parent="rqY-pGZzfr1y89Op0k2m-35" vertex="1" connectable="0">
          <mxGeometry x="0.2723" relative="1" as="geometry">
            <mxPoint as="offset" />
          </mxGeometry>
        </mxCell>
        <mxCell id="rqY-pGZzfr1y89Op0k2m-27" value="CheckInternet&lt;br&gt;fetch(httpCOnfig,&lt;br&gt;http://httpConfig.ipaddr/cgi-bin/luci/rpc/repacd {method: check_internet})" style="rhombus;whiteSpace=wrap;html=1;" parent="1" vertex="1">
          <mxGeometry x="2700" y="-170" width="80" height="80" as="geometry" />
        </mxCell>
        <mxCell id="rqY-pGZzfr1y89Op0k2m-30" value="setTimeout 3seconds&lt;br&gt;{cap: cap}" style="edgeStyle=orthogonalEdgeStyle;rounded=0;orthogonalLoop=1;jettySize=auto;html=1;exitX=0.55;exitY=0.95;exitDx=0;exitDy=0;exitPerimeter=0;entryX=0.5;entryY=0;entryDx=0;entryDy=0;" parent="1" source="rqY-pGZzfr1y89Op0k2m-29" target="6UK9n3AYxKvv8hEqM6GO-102" edge="1">
          <mxGeometry relative="1" as="geometry">
            <Array as="points">
              <mxPoint x="2556" y="-50" />
              <mxPoint x="2560" y="-50" />
            </Array>
          </mxGeometry>
        </mxCell>
        <mxCell id="rqY-pGZzfr1y89Op0k2m-29" value="Checking for the internet" style="ellipse;shape=cloud;whiteSpace=wrap;html=1;" parent="1" vertex="1">
          <mxGeometry x="2490" y="-170" width="120" height="80" as="geometry" />
        </mxCell>
        <mxCell id="rqY-pGZzfr1y89Op0k2m-37" style="edgeStyle=orthogonalEdgeStyle;rounded=0;orthogonalLoop=1;jettySize=auto;html=1;exitX=0.5;exitY=0;exitDx=0;exitDy=0;" parent="1" source="rqY-pGZzfr1y89Op0k2m-33" edge="1">
          <mxGeometry relative="1" as="geometry">
            <mxPoint x="2830" y="-120" as="targetPoint" />
          </mxGeometry>
        </mxCell>
        <mxCell id="rqY-pGZzfr1y89Op0k2m-33" value="Retry" style="ellipse;whiteSpace=wrap;html=1;aspect=fixed;" parent="1" vertex="1">
          <mxGeometry x="2860" y="20" width="80" height="80" as="geometry" />
        </mxCell>
        <mxCell id="rqY-pGZzfr1y89Op0k2m-36" style="edgeStyle=orthogonalEdgeStyle;rounded=0;orthogonalLoop=1;jettySize=auto;html=1;exitX=0.875;exitY=0.5;exitDx=0;exitDy=0;exitPerimeter=0;entryX=0;entryY=0.5;entryDx=0;entryDy=0;" parent="1" source="rqY-pGZzfr1y89Op0k2m-34" target="rqY-pGZzfr1y89Op0k2m-33" edge="1">
          <mxGeometry relative="1" as="geometry" />
        </mxCell>
        <mxCell id="rqY-pGZzfr1y89Op0k2m-34" value="Make sure you have plugged ethernet cable in to router&#39;s right port&amp;nbsp;" style="ellipse;shape=cloud;whiteSpace=wrap;html=1;" parent="1" vertex="1">
          <mxGeometry x="2690" y="20" width="120" height="80" as="geometry" />
        </mxCell>
        <mxCell id="as9aqDVmYMdzE_2a_-bm-27" value="GetToken" style="edgeStyle=orthogonalEdgeStyle;rounded=0;orthogonalLoop=1;jettySize=auto;html=1;exitX=0;exitY=0.5;exitDx=0;exitDy=0;entryX=1;entryY=0.5;entryDx=0;entryDy=0;" parent="1" source="rqY-pGZzfr1y89Op0k2m-39" target="as9aqDVmYMdzE_2a_-bm-30" edge="1">
          <mxGeometry x="-0.1429" y="10" relative="1" as="geometry">
            <mxPoint x="2470" y="545" as="targetPoint" />
            <mxPoint as="offset" />
          </mxGeometry>
        </mxCell>
        <mxCell id="as9aqDVmYMdzE_2a_-bm-28" value="GetToken" style="edgeLabel;html=1;align=center;verticalAlign=middle;resizable=0;points=[];" parent="as9aqDVmYMdzE_2a_-bm-27" vertex="1" connectable="0">
          <mxGeometry x="-0.1221" relative="1" as="geometry">
            <mxPoint x="80" y="-20" as="offset" />
          </mxGeometry>
        </mxCell>
        <mxCell id="rqY-pGZzfr1y89Op0k2m-39" value="Done" style="ellipse;whiteSpace=wrap;html=1;aspect=fixed;" parent="1" vertex="1">
          <mxGeometry x="2520" y="430" width="80" height="80" as="geometry" />
        </mxCell>
        <mxCell id="as9aqDVmYMdzE_2a_-bm-6" style="edgeStyle=orthogonalEdgeStyle;rounded=0;orthogonalLoop=1;jettySize=auto;html=1;entryX=0.875;entryY=0.5;entryDx=0;entryDy=0;entryPerimeter=0;" parent="1" target="as9aqDVmYMdzE_2a_-bm-5" edge="1">
          <mxGeometry relative="1" as="geometry">
            <mxPoint x="2560" y="305" as="sourcePoint" />
          </mxGeometry>
        </mxCell>
        <mxCell id="as9aqDVmYMdzE_2a_-bm-26" style="edgeStyle=orthogonalEdgeStyle;rounded=0;orthogonalLoop=1;jettySize=auto;html=1;" parent="1" target="rqY-pGZzfr1y89Op0k2m-39" edge="1">
          <mxGeometry relative="1" as="geometry">
            <mxPoint x="2560" y="310" as="sourcePoint" />
          </mxGeometry>
        </mxCell>
        <mxCell id="as9aqDVmYMdzE_2a_-bm-14" value="Yes&lt;br&gt;Setlabel(state.location)" style="edgeStyle=orthogonalEdgeStyle;rounded=0;orthogonalLoop=1;jettySize=auto;html=1;entryX=0.5;entryY=0;entryDx=0;entryDy=0;" parent="1" source="as9aqDVmYMdzE_2a_-bm-7" target="as9aqDVmYMdzE_2a_-bm-11" edge="1">
          <mxGeometry relative="1" as="geometry">
            <Array as="points">
              <mxPoint x="2290" y="93" />
              <mxPoint x="2085" y="93" />
            </Array>
          </mxGeometry>
        </mxCell>
        <mxCell id="as9aqDVmYMdzE_2a_-bm-18" style="edgeStyle=orthogonalEdgeStyle;rounded=0;orthogonalLoop=1;jettySize=auto;html=1;exitX=0;exitY=0.5;exitDx=0;exitDy=0;entryX=0.5;entryY=0;entryDx=0;entryDy=0;" parent="1" source="as9aqDVmYMdzE_2a_-bm-7" target="as9aqDVmYMdzE_2a_-bm-15" edge="1">
          <mxGeometry relative="1" as="geometry" />
        </mxCell>
        <mxCell id="as9aqDVmYMdzE_2a_-bm-20" value="No" style="edgeLabel;html=1;align=center;verticalAlign=middle;resizable=0;points=[];" parent="as9aqDVmYMdzE_2a_-bm-18" vertex="1" connectable="0">
          <mxGeometry x="-0.0483" y="1" relative="1" as="geometry">
            <mxPoint y="1" as="offset" />
          </mxGeometry>
        </mxCell>
        <mxCell id="as9aqDVmYMdzE_2a_-bm-7" value="label != &#39;Custom&#39;" style="rhombus;whiteSpace=wrap;html=1;" parent="1" vertex="1">
          <mxGeometry x="2250" y="112.5" width="80" height="80" as="geometry" />
        </mxCell>
        <mxCell id="as9aqDVmYMdzE_2a_-bm-23" style="edgeStyle=orthogonalEdgeStyle;rounded=0;orthogonalLoop=1;jettySize=auto;html=1;entryX=0.5;entryY=0;entryDx=0;entryDy=0;" parent="1" source="as9aqDVmYMdzE_2a_-bm-11" target="as9aqDVmYMdzE_2a_-bm-22" edge="1">
          <mxGeometry relative="1" as="geometry" />
        </mxCell>
        <mxCell id="as9aqDVmYMdzE_2a_-bm-11" value="Done" style="ellipse;whiteSpace=wrap;html=1;aspect=fixed;" parent="1" vertex="1">
          <mxGeometry x="2045" y="112.5" width="80" height="80" as="geometry" />
        </mxCell>
        <mxCell id="as9aqDVmYMdzE_2a_-bm-16" style="edgeStyle=orthogonalEdgeStyle;rounded=0;orthogonalLoop=1;jettySize=auto;html=1;exitX=0;exitY=0.5;exitDx=0;exitDy=0;entryX=1;entryY=0.5;entryDx=0;entryDy=0;" parent="1" source="as9aqDVmYMdzE_2a_-bm-15" target="as9aqDVmYMdzE_2a_-bm-11" edge="1">
          <mxGeometry relative="1" as="geometry" />
        </mxCell>
        <mxCell id="as9aqDVmYMdzE_2a_-bm-17" value="SetCustomLocation" style="edgeLabel;html=1;align=center;verticalAlign=middle;resizable=0;points=[];" parent="as9aqDVmYMdzE_2a_-bm-16" vertex="1" connectable="0">
          <mxGeometry x="0.1686" relative="1" as="geometry">
            <mxPoint x="22.5" y="6.5" as="offset" />
          </mxGeometry>
        </mxCell>
        <mxCell id="as9aqDVmYMdzE_2a_-bm-15" value="Your Custom Location" style="rounded=1;whiteSpace=wrap;html=1;" parent="1" vertex="1">
          <mxGeometry x="2170" y="205" width="120" height="60" as="geometry" />
        </mxCell>
        <mxCell id="as9aqDVmYMdzE_2a_-bm-24" style="edgeStyle=orthogonalEdgeStyle;rounded=0;orthogonalLoop=1;jettySize=auto;html=1;exitX=1;exitY=0.5;exitDx=0;exitDy=0;" parent="1" source="as9aqDVmYMdzE_2a_-bm-22" edge="1">
          <mxGeometry relative="1" as="geometry">
            <mxPoint x="2310" y="570" as="targetPoint" />
          </mxGeometry>
        </mxCell>
        <mxCell id="as9aqDVmYMdzE_2a_-bm-29" value="SetLocation(&lt;br&gt;setInfo(ipaddr: device.ip,&lt;br&gt;mac: device.mac,&lt;br&gt;location: device.location),&lt;br&gt;Boujour.setMacLocation(&lt;br&gt;device.mac, device.mac, device.location),&lt;br&gt;Boujour.scanService())" style="edgeLabel;html=1;align=center;verticalAlign=middle;resizable=0;points=[];" parent="as9aqDVmYMdzE_2a_-bm-24" vertex="1" connectable="0">
          <mxGeometry x="-0.413" y="3" relative="1" as="geometry">
            <mxPoint x="12" y="13" as="offset" />
          </mxGeometry>
        </mxCell>
        <mxCell id="as9aqDVmYMdzE_2a_-bm-22" value="Continue" style="ellipse;whiteSpace=wrap;html=1;aspect=fixed;" parent="1" vertex="1">
          <mxGeometry x="2045" y="330" width="80" height="80" as="geometry" />
        </mxCell>
        <mxCell id="as9aqDVmYMdzE_2a_-bm-41" style="edgeStyle=orthogonalEdgeStyle;rounded=0;orthogonalLoop=1;jettySize=auto;html=1;exitX=0.5;exitY=1;exitDx=0;exitDy=0;entryX=-0.012;entryY=0.613;entryDx=0;entryDy=0;entryPerimeter=0;" parent="1" source="as9aqDVmYMdzE_2a_-bm-25" target="as9aqDVmYMdzE_2a_-bm-34" edge="1">
          <mxGeometry relative="1" as="geometry" />
        </mxCell>
        <mxCell id="as9aqDVmYMdzE_2a_-bm-42" value="setPassword()&lt;br&gt;validPassword()" style="edgeLabel;html=1;align=center;verticalAlign=middle;resizable=0;points=[];" parent="as9aqDVmYMdzE_2a_-bm-41" vertex="1" connectable="0">
          <mxGeometry x="-0.4029" y="1" relative="1" as="geometry">
            <mxPoint as="offset" />
          </mxGeometry>
        </mxCell>
        <mxCell id="as9aqDVmYMdzE_2a_-bm-25" value="setSSIDPassword" style="rounded=1;whiteSpace=wrap;html=1;" parent="1" vertex="1">
          <mxGeometry x="2250" y="580" width="120" height="60" as="geometry" />
        </mxCell>
        <mxCell id="as9aqDVmYMdzE_2a_-bm-31" style="edgeStyle=orthogonalEdgeStyle;rounded=0;orthogonalLoop=1;jettySize=auto;html=1;" parent="1" source="as9aqDVmYMdzE_2a_-bm-30" edge="1">
          <mxGeometry relative="1" as="geometry">
            <mxPoint x="2310" y="520" as="targetPoint" />
          </mxGeometry>
        </mxCell>
        <mxCell id="as9aqDVmYMdzE_2a_-bm-32" value="notoken&lt;br&gt;SetState(&lt;br&gt;loading: false,&lt;br&gt;passwordDiaglogVisible: true,&lt;br&gt;password: &quot;&quot;)" style="edgeStyle=orthogonalEdgeStyle;rounded=0;orthogonalLoop=1;jettySize=auto;html=1;exitX=0.5;exitY=1;exitDx=0;exitDy=0;" parent="1" source="as9aqDVmYMdzE_2a_-bm-30" edge="1">
          <mxGeometry x="0.2941" y="-45" relative="1" as="geometry">
            <mxPoint x="2460" y="510" as="targetPoint" />
            <Array as="points">
              <mxPoint x="2410" y="560" />
              <mxPoint x="2470" y="560" />
              <mxPoint x="2470" y="510" />
            </Array>
            <mxPoint x="-5" y="20" as="offset" />
          </mxGeometry>
        </mxCell>
        <mxCell id="as9aqDVmYMdzE_2a_-bm-30" value="!getToken(config)&lt;br&gt;httpPost(&lt;br&gt;http://httpConfig.ipaddr/cgi-bin/luci-rpc/auth&lt;br&gt;{method:login,&lt;br&gt;params:httpConfig.username,&lt;br&gt;httpConfig.password}" style="rhombus;whiteSpace=wrap;html=1;" parent="1" vertex="1">
          <mxGeometry x="2370" y="430" width="80" height="80" as="geometry" />
        </mxCell>
        <mxCell id="as9aqDVmYMdzE_2a_-bm-39" value="{cap: Router.create( ...cap,&lt;br&gt;ssid: ssid),&lt;br&gt;ssid,&lt;br&gt;password,&lt;br&gt;oldSSID; CAP.ssid}" style="edgeStyle=orthogonalEdgeStyle;rounded=0;orthogonalLoop=1;jettySize=auto;html=1;exitX=1;exitY=0.5;exitDx=0;exitDy=0;entryX=0;entryY=0.5;entryDx=0;entryDy=0;" parent="1" source="as9aqDVmYMdzE_2a_-bm-34" target="as9aqDVmYMdzE_2a_-bm-38" edge="1">
          <mxGeometry y="-40" relative="1" as="geometry">
            <mxPoint as="offset" />
          </mxGeometry>
        </mxCell>
        <mxCell id="as9aqDVmYMdzE_2a_-bm-34" value="Continue" style="ellipse;whiteSpace=wrap;html=1;aspect=fixed;" parent="1" vertex="1">
          <mxGeometry x="2470" y="720" width="80" height="80" as="geometry" />
        </mxCell>
        <mxCell id="as9aqDVmYMdzE_2a_-bm-49" style="edgeStyle=orthogonalEdgeStyle;rounded=0;orthogonalLoop=1;jettySize=auto;html=1;exitX=1;exitY=0.5;exitDx=0;exitDy=0;entryX=0;entryY=0.5;entryDx=0;entryDy=0;" parent="1" source="as9aqDVmYMdzE_2a_-bm-38" target="as9aqDVmYMdzE_2a_-bm-43" edge="1">
          <mxGeometry relative="1" as="geometry" />
        </mxCell>
        <mxCell id="as9aqDVmYMdzE_2a_-bm-50" style="edgeStyle=orthogonalEdgeStyle;rounded=0;orthogonalLoop=1;jettySize=auto;html=1;entryX=0;entryY=0.5;entryDx=0;entryDy=0;" parent="1" source="as9aqDVmYMdzE_2a_-bm-38" target="as9aqDVmYMdzE_2a_-bm-44" edge="1">
          <mxGeometry relative="1" as="geometry" />
        </mxCell>
        <mxCell id="as9aqDVmYMdzE_2a_-bm-51" style="edgeStyle=orthogonalEdgeStyle;rounded=0;orthogonalLoop=1;jettySize=auto;html=1;entryX=0;entryY=0.5;entryDx=0;entryDy=0;" parent="1" source="as9aqDVmYMdzE_2a_-bm-38" target="as9aqDVmYMdzE_2a_-bm-47" edge="1">
          <mxGeometry relative="1" as="geometry" />
        </mxCell>
        <mxCell id="as9aqDVmYMdzE_2a_-bm-52" style="edgeStyle=orthogonalEdgeStyle;rounded=0;orthogonalLoop=1;jettySize=auto;html=1;entryX=0;entryY=0.5;entryDx=0;entryDy=0;" parent="1" source="as9aqDVmYMdzE_2a_-bm-38" target="as9aqDVmYMdzE_2a_-bm-46" edge="1">
          <mxGeometry relative="1" as="geometry" />
        </mxCell>
        <mxCell id="as9aqDVmYMdzE_2a_-bm-53" style="edgeStyle=orthogonalEdgeStyle;rounded=0;orthogonalLoop=1;jettySize=auto;html=1;entryX=0;entryY=0.5;entryDx=0;entryDy=0;" parent="1" source="as9aqDVmYMdzE_2a_-bm-38" target="as9aqDVmYMdzE_2a_-bm-48" edge="1">
          <mxGeometry relative="1" as="geometry" />
        </mxCell>
        <mxCell id="as9aqDVmYMdzE_2a_-bm-38" value="ConfigureCAP" style="rounded=1;whiteSpace=wrap;html=1;" parent="1" vertex="1">
          <mxGeometry x="2690" y="730" width="120" height="60" as="geometry" />
        </mxCell>
        <mxCell id="as9aqDVmYMdzE_2a_-bm-58" value="&lt;meta charset=&quot;utf-8&quot;&gt;&lt;span style=&quot;color: rgb(0, 0, 0); font-family: helvetica; font-size: 11px; font-style: normal; font-weight: 400; letter-spacing: normal; text-align: center; text-indent: 0px; text-transform: none; word-spacing: 0px; background-color: rgb(255, 255, 255); display: inline; float: none;&quot;&gt;error:false&lt;/span&gt;" style="edgeStyle=orthogonalEdgeStyle;rounded=0;orthogonalLoop=1;jettySize=auto;html=1;exitX=1;exitY=0.5;exitDx=0;exitDy=0;entryX=0;entryY=0.5;entryDx=0;entryDy=0;" parent="1" source="as9aqDVmYMdzE_2a_-bm-43" target="as9aqDVmYMdzE_2a_-bm-54" edge="1">
          <mxGeometry relative="1" as="geometry" />
        </mxCell>
        <mxCell id="as9aqDVmYMdzE_2a_-bm-43" value="SetWifiCredential.SavingWifiCredential ||&lt;br&gt;WaitingForWifiRestart.Waiting" style="rhombus;whiteSpace=wrap;html=1;" parent="1" vertex="1">
          <mxGeometry x="2990" y="640" width="80" height="80" as="geometry" />
        </mxCell>
        <mxCell id="as9aqDVmYMdzE_2a_-bm-59" value="&lt;span style=&quot;color: rgb(0 , 0 , 0) ; font-family: &amp;#34;helvetica&amp;#34; ; font-size: 11px ; font-style: normal ; font-weight: 400 ; letter-spacing: normal ; text-align: center ; text-indent: 0px ; text-transform: none ; word-spacing: 0px ; background-color: rgb(255 , 255 , 255) ; display: inline ; float: none&quot;&gt;error:ftrue&lt;/span&gt;" style="edgeStyle=orthogonalEdgeStyle;rounded=0;orthogonalLoop=1;jettySize=auto;html=1;exitX=1;exitY=0.5;exitDx=0;exitDy=0;" parent="1" source="as9aqDVmYMdzE_2a_-bm-44" edge="1">
          <mxGeometry relative="1" as="geometry">
            <mxPoint x="3110" y="740" as="targetPoint" />
          </mxGeometry>
        </mxCell>
        <mxCell id="as9aqDVmYMdzE_2a_-bm-44" value="&lt;span&gt;SetWifiCredential.AskUserToRetry&lt;/span&gt;" style="rhombus;whiteSpace=wrap;html=1;" parent="1" vertex="1">
          <mxGeometry x="2990" y="760" width="80" height="80" as="geometry" />
        </mxCell>
        <mxCell id="as9aqDVmYMdzE_2a_-bm-57" style="edgeStyle=orthogonalEdgeStyle;rounded=0;orthogonalLoop=1;jettySize=auto;html=1;" parent="1" source="as9aqDVmYMdzE_2a_-bm-46" edge="1">
          <mxGeometry relative="1" as="geometry">
            <mxPoint x="3110" y="980" as="targetPoint" />
          </mxGeometry>
        </mxCell>
        <mxCell id="as9aqDVmYMdzE_2a_-bm-62" value="error:true" style="edgeLabel;html=1;align=center;verticalAlign=middle;resizable=0;points=[];" parent="as9aqDVmYMdzE_2a_-bm-57" vertex="1" connectable="0">
          <mxGeometry x="-0.2727" y="20" relative="1" as="geometry">
            <mxPoint x="20" y="-20" as="offset" />
          </mxGeometry>
        </mxCell>
        <mxCell id="as9aqDVmYMdzE_2a_-bm-46" value="&lt;span&gt;WaitingForWifiRestart.AskUserToRetry&lt;/span&gt;" style="rhombus;whiteSpace=wrap;html=1;" parent="1" vertex="1">
          <mxGeometry x="2990" y="1010" width="80" height="80" as="geometry" />
        </mxCell>
        <mxCell id="as9aqDVmYMdzE_2a_-bm-56" value="error:false" style="edgeStyle=orthogonalEdgeStyle;rounded=0;orthogonalLoop=1;jettySize=auto;html=1;exitX=1;exitY=0.5;exitDx=0;exitDy=0;entryX=0;entryY=0.5;entryDx=0;entryDy=0;" parent="1" source="as9aqDVmYMdzE_2a_-bm-47" target="as9aqDVmYMdzE_2a_-bm-55" edge="1">
          <mxGeometry relative="1" as="geometry" />
        </mxCell>
        <mxCell id="as9aqDVmYMdzE_2a_-bm-47" value="&lt;span&gt;WaitingForWifiRestart.TryConnectWifi&lt;br&gt;||&lt;br&gt;UpdateToCloud&lt;br&gt;&lt;/span&gt;" style="rhombus;whiteSpace=wrap;html=1;" parent="1" vertex="1">
          <mxGeometry x="2990" y="870" width="80" height="80" as="geometry" />
        </mxCell>
        <mxCell id="as9aqDVmYMdzE_2a_-bm-61" style="edgeStyle=orthogonalEdgeStyle;rounded=0;orthogonalLoop=1;jettySize=auto;html=1;entryX=0;entryY=0.5;entryDx=0;entryDy=0;" parent="1" source="as9aqDVmYMdzE_2a_-bm-48" target="as9aqDVmYMdzE_2a_-bm-60" edge="1">
          <mxGeometry relative="1" as="geometry" />
        </mxCell>
        <mxCell id="as9aqDVmYMdzE_2a_-bm-48" value="&lt;span&gt;Success&lt;/span&gt;" style="rhombus;whiteSpace=wrap;html=1;" parent="1" vertex="1">
          <mxGeometry x="2990" y="1130" width="80" height="80" as="geometry" />
        </mxCell>
        <mxCell id="as9aqDVmYMdzE_2a_-bm-78" value="" style="edgeStyle=orthogonalEdgeStyle;rounded=0;orthogonalLoop=1;jettySize=auto;html=1;" parent="1" source="as9aqDVmYMdzE_2a_-bm-54" target="as9aqDVmYMdzE_2a_-bm-77" edge="1">
          <mxGeometry relative="1" as="geometry" />
        </mxCell>
        <mxCell id="as9aqDVmYMdzE_2a_-bm-54" value="SecureWifiScreen" style="rounded=1;whiteSpace=wrap;html=1;" parent="1" vertex="1">
          <mxGeometry x="3150" y="710" width="120" height="60" as="geometry" />
        </mxCell>
        <mxCell id="as9aqDVmYMdzE_2a_-bm-70" style="edgeStyle=orthogonalEdgeStyle;rounded=0;orthogonalLoop=1;jettySize=auto;html=1;exitX=1;exitY=0.5;exitDx=0;exitDy=0;entryX=0;entryY=0.5;entryDx=0;entryDy=0;" parent="1" source="as9aqDVmYMdzE_2a_-bm-55" target="as9aqDVmYMdzE_2a_-bm-69" edge="1">
          <mxGeometry relative="1" as="geometry" />
        </mxCell>
        <mxCell id="as9aqDVmYMdzE_2a_-bm-55" value="WifiRestartScreen" style="rounded=1;whiteSpace=wrap;html=1;" parent="1" vertex="1">
          <mxGeometry x="3150" y="950" width="120" height="60" as="geometry" />
        </mxCell>
        <mxCell id="as9aqDVmYMdzE_2a_-bm-64" style="edgeStyle=orthogonalEdgeStyle;rounded=0;orthogonalLoop=1;jettySize=auto;html=1;exitX=1;exitY=0.5;exitDx=0;exitDy=0;entryX=0;entryY=0.5;entryDx=0;entryDy=0;" parent="1" source="as9aqDVmYMdzE_2a_-bm-60" target="as9aqDVmYMdzE_2a_-bm-63" edge="1">
          <mxGeometry relative="1" as="geometry" />
        </mxCell>
        <mxCell id="as9aqDVmYMdzE_2a_-bm-87" value="" style="edgeStyle=orthogonalEdgeStyle;rounded=0;orthogonalLoop=1;jettySize=auto;html=1;" parent="1" source="as9aqDVmYMdzE_2a_-bm-60" target="as9aqDVmYMdzE_2a_-bm-67" edge="1">
          <mxGeometry relative="1" as="geometry" />
        </mxCell>
        <mxCell id="as9aqDVmYMdzE_2a_-bm-60" value="DoneScreen" style="rounded=1;whiteSpace=wrap;html=1;" parent="1" vertex="1">
          <mxGeometry x="3150" y="1140" width="120" height="60" as="geometry" />
        </mxCell>
        <mxCell id="as9aqDVmYMdzE_2a_-bm-66" value="networkId: Context.networkId" style="edgeStyle=orthogonalEdgeStyle;rounded=0;orthogonalLoop=1;jettySize=auto;html=1;exitX=1;exitY=0.5;exitDx=0;exitDy=0;entryX=0;entryY=0.5;entryDx=0;entryDy=0;" parent="1" source="as9aqDVmYMdzE_2a_-bm-63" target="as9aqDVmYMdzE_2a_-bm-65" edge="1">
          <mxGeometry relative="1" as="geometry" />
        </mxCell>
        <mxCell id="as9aqDVmYMdzE_2a_-bm-63" value="LaunchSetup&amp;nbsp;" style="ellipse;whiteSpace=wrap;html=1;aspect=fixed;" parent="1" vertex="1">
          <mxGeometry x="3350" y="1130" width="80" height="80" as="geometry" />
        </mxCell>
        <mxCell id="XKAFuyvhhYYlIslUhbyX-4" value="" style="edgeStyle=orthogonalEdgeStyle;rounded=0;orthogonalLoop=1;jettySize=auto;html=1;" edge="1" parent="1" source="as9aqDVmYMdzE_2a_-bm-65" target="XKAFuyvhhYYlIslUhbyX-2">
          <mxGeometry relative="1" as="geometry" />
        </mxCell>
        <mxCell id="as9aqDVmYMdzE_2a_-bm-65" value="Instruction" style="rounded=1;whiteSpace=wrap;html=1;" parent="1" vertex="1">
          <mxGeometry x="3610" y="1140" width="120" height="60" as="geometry" />
        </mxCell>
        <mxCell id="as9aqDVmYMdzE_2a_-bm-89" style="edgeStyle=orthogonalEdgeStyle;rounded=0;orthogonalLoop=1;jettySize=auto;html=1;exitX=0;exitY=0.5;exitDx=0;exitDy=0;" parent="1" source="as9aqDVmYMdzE_2a_-bm-67" target="6UK9n3AYxKvv8hEqM6GO-108" edge="1">
          <mxGeometry relative="1" as="geometry" />
        </mxCell>
        <mxCell id="as9aqDVmYMdzE_2a_-bm-90" value="{is:content.NetworkId}" style="edgeLabel;html=1;align=center;verticalAlign=middle;resizable=0;points=[];" parent="as9aqDVmYMdzE_2a_-bm-89" vertex="1" connectable="0">
          <mxGeometry x="-0.8589" relative="1" as="geometry">
            <mxPoint as="offset" />
          </mxGeometry>
        </mxCell>
        <mxCell id="as9aqDVmYMdzE_2a_-bm-67" value="Done" style="ellipse;whiteSpace=wrap;html=1;aspect=fixed;" parent="1" vertex="1">
          <mxGeometry x="3170" y="1250" width="80" height="80" as="geometry" />
        </mxCell>
        <mxCell id="as9aqDVmYMdzE_2a_-bm-72" value="" style="edgeStyle=orthogonalEdgeStyle;rounded=0;orthogonalLoop=1;jettySize=auto;html=1;" parent="1" source="as9aqDVmYMdzE_2a_-bm-69" target="as9aqDVmYMdzE_2a_-bm-71" edge="1">
          <mxGeometry relative="1" as="geometry" />
        </mxCell>
        <mxCell id="as9aqDVmYMdzE_2a_-bm-83" style="edgeStyle=orthogonalEdgeStyle;rounded=0;orthogonalLoop=1;jettySize=auto;html=1;exitX=0.5;exitY=1;exitDx=0;exitDy=0;" parent="1" source="as9aqDVmYMdzE_2a_-bm-69" edge="1">
          <mxGeometry relative="1" as="geometry">
            <mxPoint x="2950" y="1170" as="targetPoint" />
            <Array as="points">
              <mxPoint x="3380" y="1110" />
              <mxPoint x="2950" y="1110" />
            </Array>
          </mxGeometry>
        </mxCell>
        <mxCell id="as9aqDVmYMdzE_2a_-bm-84" value="noerror" style="edgeLabel;html=1;align=center;verticalAlign=middle;resizable=0;points=[];" parent="as9aqDVmYMdzE_2a_-bm-83" vertex="1" connectable="0">
          <mxGeometry y="-1" relative="1" as="geometry">
            <mxPoint as="offset" />
          </mxGeometry>
        </mxCell>
        <mxCell id="as9aqDVmYMdzE_2a_-bm-69" value="error" style="rhombus;whiteSpace=wrap;html=1;" parent="1" vertex="1">
          <mxGeometry x="3340" y="940" width="80" height="80" as="geometry" />
        </mxCell>
        <mxCell id="as9aqDVmYMdzE_2a_-bm-85" style="edgeStyle=orthogonalEdgeStyle;rounded=0;orthogonalLoop=1;jettySize=auto;html=1;exitX=1;exitY=0.5;exitDx=0;exitDy=0;" parent="1" source="as9aqDVmYMdzE_2a_-bm-71" edge="1">
          <mxGeometry relative="1" as="geometry">
            <mxPoint x="2900" y="860" as="targetPoint" />
            <Array as="points">
              <mxPoint x="3570" y="980" />
              <mxPoint x="3570" y="860" />
            </Array>
          </mxGeometry>
        </mxCell>
        <mxCell id="as9aqDVmYMdzE_2a_-bm-86" value="send(Yes)" style="edgeLabel;html=1;align=center;verticalAlign=middle;resizable=0;points=[];" parent="as9aqDVmYMdzE_2a_-bm-85" vertex="1" connectable="0">
          <mxGeometry x="-0.763" relative="1" as="geometry">
            <mxPoint as="offset" />
          </mxGeometry>
        </mxCell>
        <mxCell id="as9aqDVmYMdzE_2a_-bm-71" value="Retry" style="ellipse;whiteSpace=wrap;html=1;aspect=fixed;" parent="1" vertex="1">
          <mxGeometry x="3470" y="940" width="80" height="80" as="geometry" />
        </mxCell>
        <mxCell id="as9aqDVmYMdzE_2a_-bm-81" style="edgeStyle=orthogonalEdgeStyle;rounded=0;orthogonalLoop=1;jettySize=auto;html=1;exitX=1;exitY=0.5;exitDx=0;exitDy=0;" parent="1" source="as9aqDVmYMdzE_2a_-bm-76" edge="1">
          <mxGeometry relative="1" as="geometry">
            <mxPoint x="2900" y="680" as="targetPoint" />
            <Array as="points">
              <mxPoint x="3570" y="740" />
              <mxPoint x="3570" y="590" />
              <mxPoint x="2900" y="590" />
            </Array>
          </mxGeometry>
        </mxCell>
        <mxCell id="as9aqDVmYMdzE_2a_-bm-82" value="send(Yes)" style="edgeLabel;html=1;align=center;verticalAlign=middle;resizable=0;points=[];" parent="as9aqDVmYMdzE_2a_-bm-81" vertex="1" connectable="0">
          <mxGeometry x="-0.7656" y="-1" relative="1" as="geometry">
            <mxPoint as="offset" />
          </mxGeometry>
        </mxCell>
        <mxCell id="as9aqDVmYMdzE_2a_-bm-76" value="Retry" style="ellipse;whiteSpace=wrap;html=1;aspect=fixed;" parent="1" vertex="1">
          <mxGeometry x="3470" y="700" width="80" height="80" as="geometry" />
        </mxCell>
        <mxCell id="as9aqDVmYMdzE_2a_-bm-79" value="" style="edgeStyle=orthogonalEdgeStyle;rounded=0;orthogonalLoop=1;jettySize=auto;html=1;" parent="1" source="as9aqDVmYMdzE_2a_-bm-77" target="as9aqDVmYMdzE_2a_-bm-76" edge="1">
          <mxGeometry relative="1" as="geometry" />
        </mxCell>
        <mxCell id="as9aqDVmYMdzE_2a_-bm-80" value="noerror" style="edgeStyle=orthogonalEdgeStyle;rounded=0;orthogonalLoop=1;jettySize=auto;html=1;exitX=0.5;exitY=1;exitDx=0;exitDy=0;" parent="1" source="as9aqDVmYMdzE_2a_-bm-77" edge="1">
          <mxGeometry relative="1" as="geometry">
            <mxPoint x="2920" y="910" as="targetPoint" />
          </mxGeometry>
        </mxCell>
        <mxCell id="as9aqDVmYMdzE_2a_-bm-77" value="error" style="rhombus;whiteSpace=wrap;html=1;" parent="1" vertex="1">
          <mxGeometry x="3330" y="700" width="80" height="80" as="geometry" />
        </mxCell>
        <mxCell id="XKAFuyvhhYYlIslUhbyX-8" value="" style="edgeStyle=orthogonalEdgeStyle;rounded=0;orthogonalLoop=1;jettySize=auto;html=1;" edge="1" parent="1" source="XKAFuyvhhYYlIslUhbyX-1" target="XKAFuyvhhYYlIslUhbyX-5">
          <mxGeometry relative="1" as="geometry" />
        </mxCell>
        <mxCell id="XKAFuyvhhYYlIslUhbyX-1" value="New Network" style="rounded=1;whiteSpace=wrap;html=1;" vertex="1" parent="1">
          <mxGeometry x="3610" y="1540" width="120" height="60" as="geometry" />
        </mxCell>
        <mxCell id="XKAFuyvhhYYlIslUhbyX-3" value="{networdId: navigation.state.params.networkId}" style="edgeStyle=orthogonalEdgeStyle;rounded=0;orthogonalLoop=1;jettySize=auto;html=1;exitX=0.5;exitY=1;exitDx=0;exitDy=0;entryX=0.5;entryY=0;entryDx=0;entryDy=0;" edge="1" parent="1" source="XKAFuyvhhYYlIslUhbyX-2" target="XKAFuyvhhYYlIslUhbyX-1">
          <mxGeometry relative="1" as="geometry" />
        </mxCell>
        <mxCell id="XKAFuyvhhYYlIslUhbyX-2" value="Continue" style="ellipse;whiteSpace=wrap;html=1;aspect=fixed;" vertex="1" parent="1">
          <mxGeometry x="3630" y="1380" width="80" height="80" as="geometry" />
        </mxCell>
        <mxCell id="XKAFuyvhhYYlIslUhbyX-7" value="{ssid: ssid,&lt;br&gt;networkRd: networkId,&lt;br&gt;network: network}" style="edgeStyle=orthogonalEdgeStyle;rounded=0;orthogonalLoop=1;jettySize=auto;html=1;" edge="1" parent="1" source="XKAFuyvhhYYlIslUhbyX-5" target="XKAFuyvhhYYlIslUhbyX-6">
          <mxGeometry relative="1" as="geometry" />
        </mxCell>
        <mxCell id="XKAFuyvhhYYlIslUhbyX-5" value="Continue" style="ellipse;whiteSpace=wrap;html=1;aspect=fixed;" vertex="1" parent="1">
          <mxGeometry x="3630" y="1650" width="80" height="80" as="geometry" />
        </mxCell>
        <mxCell id="XKAFuyvhhYYlIslUhbyX-10" style="edgeStyle=orthogonalEdgeStyle;rounded=0;orthogonalLoop=1;jettySize=auto;html=1;exitX=0;exitY=0.5;exitDx=0;exitDy=0;entryX=0.5;entryY=1;entryDx=0;entryDy=0;" edge="1" parent="1" source="XKAFuyvhhYYlIslUhbyX-6" target="XKAFuyvhhYYlIslUhbyX-9">
          <mxGeometry relative="1" as="geometry" />
        </mxCell>
        <mxCell id="XKAFuyvhhYYlIslUhbyX-6" value="REConfirmReady" style="rounded=1;whiteSpace=wrap;html=1;" vertex="1" parent="1">
          <mxGeometry x="3610" y="1800" width="120" height="60" as="geometry" />
        </mxCell>
        <mxCell id="XKAFuyvhhYYlIslUhbyX-12" value="{}ssid: ssid,&lt;br&gt;networkId: networkId,&lt;br&gt;network:network" style="edgeStyle=orthogonalEdgeStyle;rounded=0;orthogonalLoop=1;jettySize=auto;html=1;" edge="1" parent="1" source="XKAFuyvhhYYlIslUhbyX-9" target="XKAFuyvhhYYlIslUhbyX-11">
          <mxGeometry relative="1" as="geometry" />
        </mxCell>
        <mxCell id="XKAFuyvhhYYlIslUhbyX-9" value="Continue" style="ellipse;whiteSpace=wrap;html=1;aspect=fixed;" vertex="1" parent="1">
          <mxGeometry x="3430" y="1700" width="80" height="80" as="geometry" />
        </mxCell>
        <mxCell id="XKAFuyvhhYYlIslUhbyX-14" value="" style="edgeStyle=orthogonalEdgeStyle;rounded=0;orthogonalLoop=1;jettySize=auto;html=1;" edge="1" parent="1" source="XKAFuyvhhYYlIslUhbyX-11" target="XKAFuyvhhYYlIslUhbyX-13">
          <mxGeometry relative="1" as="geometry" />
        </mxCell>
        <mxCell id="XKAFuyvhhYYlIslUhbyX-11" value="REWaitForReady" style="rounded=1;whiteSpace=wrap;html=1;" vertex="1" parent="1">
          <mxGeometry x="3410" y="1540" width="120" height="60" as="geometry" />
        </mxCell>
        <mxCell id="XKAFuyvhhYYlIslUhbyX-16" style="edgeStyle=orthogonalEdgeStyle;rounded=0;orthogonalLoop=1;jettySize=auto;html=1;entryX=0.5;entryY=0;entryDx=0;entryDy=0;" edge="1" parent="1" source="XKAFuyvhhYYlIslUhbyX-13" target="XKAFuyvhhYYlIslUhbyX-15">
          <mxGeometry relative="1" as="geometry" />
        </mxCell>
        <mxCell id="XKAFuyvhhYYlIslUhbyX-17" value="{networdId: networkId,&lt;br&gt;network: network}" style="edgeLabel;html=1;align=center;verticalAlign=middle;resizable=0;points=[];" vertex="1" connectable="0" parent="XKAFuyvhhYYlIslUhbyX-16">
          <mxGeometry x="0.1429" y="42" relative="1" as="geometry">
            <mxPoint x="-44" y="42" as="offset" />
          </mxGeometry>
        </mxCell>
        <mxCell id="XKAFuyvhhYYlIslUhbyX-13" value="Continue" style="ellipse;whiteSpace=wrap;html=1;aspect=fixed;" vertex="1" parent="1">
          <mxGeometry x="3430" y="1380" width="80" height="80" as="geometry" />
        </mxCell>
        <mxCell id="XKAFuyvhhYYlIslUhbyX-34" style="edgeStyle=orthogonalEdgeStyle;rounded=0;orthogonalLoop=1;jettySize=auto;html=1;exitX=0;exitY=0.5;exitDx=0;exitDy=0;entryX=1;entryY=0.5;entryDx=0;entryDy=0;" edge="1" parent="1" source="XKAFuyvhhYYlIslUhbyX-15" target="XKAFuyvhhYYlIslUhbyX-24">
          <mxGeometry relative="1" as="geometry" />
        </mxCell>
        <mxCell id="XKAFuyvhhYYlIslUhbyX-15" value="REScanDevice" style="rounded=1;whiteSpace=wrap;html=1;" vertex="1" parent="1">
          <mxGeometry x="3210" y="1540" width="120" height="60" as="geometry" />
        </mxCell>
        <mxCell id="XKAFuyvhhYYlIslUhbyX-23" value="FoundManyNode" style="edgeStyle=orthogonalEdgeStyle;rounded=0;orthogonalLoop=1;jettySize=auto;html=1;" edge="1" parent="1" source="XKAFuyvhhYYlIslUhbyX-18" target="XKAFuyvhhYYlIslUhbyX-21">
          <mxGeometry relative="1" as="geometry" />
        </mxCell>
        <mxCell id="XKAFuyvhhYYlIslUhbyX-29" value="FoundOneNode" style="edgeStyle=orthogonalEdgeStyle;rounded=0;orthogonalLoop=1;jettySize=auto;html=1;exitX=0;exitY=0.5;exitDx=0;exitDy=0;entryX=0.5;entryY=0;entryDx=0;entryDy=0;" edge="1" parent="1" source="XKAFuyvhhYYlIslUhbyX-18" target="XKAFuyvhhYYlIslUhbyX-28">
          <mxGeometry relative="1" as="geometry" />
        </mxCell>
        <mxCell id="XKAFuyvhhYYlIslUhbyX-18" value="Device.llength&lt;br&gt;== 1" style="rhombus;whiteSpace=wrap;html=1;" vertex="1" parent="1">
          <mxGeometry x="2830" y="1530" width="80" height="80" as="geometry" />
        </mxCell>
        <mxCell id="XKAFuyvhhYYlIslUhbyX-19" value="ConfigureRe" style="rounded=1;whiteSpace=wrap;html=1;" vertex="1" parent="1">
          <mxGeometry x="2810" y="1840" width="120" height="60" as="geometry" />
        </mxCell>
        <mxCell id="XKAFuyvhhYYlIslUhbyX-22" value="{networkId: navgation.state.params.networkId,&lt;br&gt;code: parseCode(menubar)}" style="edgeStyle=orthogonalEdgeStyle;rounded=0;orthogonalLoop=1;jettySize=auto;html=1;" edge="1" parent="1" source="XKAFuyvhhYYlIslUhbyX-21" target="XKAFuyvhhYYlIslUhbyX-19">
          <mxGeometry relative="1" as="geometry" />
        </mxCell>
        <mxCell id="XKAFuyvhhYYlIslUhbyX-21" value="Device" style="ellipse;whiteSpace=wrap;html=1;aspect=fixed;" vertex="1" parent="1">
          <mxGeometry x="2830" y="1690" width="80" height="80" as="geometry" />
        </mxCell>
        <mxCell id="XKAFuyvhhYYlIslUhbyX-26" value="NotFound" style="edgeStyle=orthogonalEdgeStyle;rounded=0;orthogonalLoop=1;jettySize=auto;html=1;" edge="1" parent="1" source="XKAFuyvhhYYlIslUhbyX-24" target="XKAFuyvhhYYlIslUhbyX-25">
          <mxGeometry relative="1" as="geometry" />
        </mxCell>
        <mxCell id="XKAFuyvhhYYlIslUhbyX-27" value="" style="edgeStyle=orthogonalEdgeStyle;rounded=0;orthogonalLoop=1;jettySize=auto;html=1;" edge="1" parent="1" source="XKAFuyvhhYYlIslUhbyX-24" target="XKAFuyvhhYYlIslUhbyX-18">
          <mxGeometry relative="1" as="geometry" />
        </mxCell>
        <mxCell id="XKAFuyvhhYYlIslUhbyX-24" value="Device.lnegth&amp;nbsp;&lt;br&gt;== 0" style="rhombus;whiteSpace=wrap;html=1;" vertex="1" parent="1">
          <mxGeometry x="3010" y="1530" width="80" height="80" as="geometry" />
        </mxCell>
        <mxCell id="XKAFuyvhhYYlIslUhbyX-33" value="networkId: nv.state.params.networkId" style="edgeStyle=orthogonalEdgeStyle;rounded=0;orthogonalLoop=1;jettySize=auto;html=1;" edge="1" parent="1" source="XKAFuyvhhYYlIslUhbyX-25" target="XKAFuyvhhYYlIslUhbyX-32">
          <mxGeometry relative="1" as="geometry" />
        </mxCell>
        <mxCell id="XKAFuyvhhYYlIslUhbyX-25" value="Use QR Code" style="ellipse;whiteSpace=wrap;html=1;aspect=fixed;" vertex="1" parent="1">
          <mxGeometry x="3010" y="1690" width="80" height="80" as="geometry" />
        </mxCell>
        <mxCell id="XKAFuyvhhYYlIslUhbyX-30" value="}" style="edgeStyle=orthogonalEdgeStyle;rounded=0;orthogonalLoop=1;jettySize=auto;html=1;exitX=0.5;exitY=1;exitDx=0;exitDy=0;entryX=0;entryY=0.5;entryDx=0;entryDy=0;" edge="1" parent="1" source="XKAFuyvhhYYlIslUhbyX-28" target="XKAFuyvhhYYlIslUhbyX-19">
          <mxGeometry relative="1" as="geometry" />
        </mxCell>
        <mxCell id="XKAFuyvhhYYlIslUhbyX-31" value="{networkId: navgation.state.params.networkId,&lt;br&gt;code: parseCode()}" style="edgeLabel;html=1;align=center;verticalAlign=middle;resizable=0;points=[];" vertex="1" connectable="0" parent="XKAFuyvhhYYlIslUhbyX-30">
          <mxGeometry x="-0.0909" y="48" relative="1" as="geometry">
            <mxPoint x="-40" y="58" as="offset" />
          </mxGeometry>
        </mxCell>
        <mxCell id="XKAFuyvhhYYlIslUhbyX-28" value="Continue" style="ellipse;whiteSpace=wrap;html=1;aspect=fixed;" vertex="1" parent="1">
          <mxGeometry x="2650" y="1690" width="80" height="80" as="geometry" />
        </mxCell>
        <mxCell id="XKAFuyvhhYYlIslUhbyX-32" value="REScanQR" style="rounded=1;whiteSpace=wrap;html=1;" vertex="1" parent="1">
          <mxGeometry x="2990" y="1840" width="120" height="60" as="geometry" />
        </mxCell>
      </root>
    </mxGraphModel>
  </diagram>
</mxfile>
